<?xml version="1.0" standalone="no"?>
<!DOCTYPE svg PUBLIC "-//W3C//DTD SVG 20010904//EN"
 "http://www.w3.org/TR/2001/REC-SVG-20010904/DTD/svg10.dtd">
<svg version="1.0" xmlns="http://www.w3.org/2000/svg"
 width="1852.000000pt" height="1852.000000pt" viewBox="0 0 1852.000000 1852.000000"
 preserveAspectRatio="xMidYMid meet">
<metadata>
Created by potrace 1.14, written by Peter Selinger 2001-2017
</metadata>
<g transform="translate(0.000000,1852.000000) scale(0.100000,-0.100000)"
fill="#000000" stroke="none">
<path d="M13367 14263 c-1 -1 -61 -4 -132 -7 -72 -4 -139 -8 -150 -10 -11 -2
-55 -7 -98 -11 -43 -3 -88 -8 -100 -10 -12 -2 -44 -6 -72 -10 -27 -3 -101 -15
-164 -26 -775 -135 -1500 -448 -2126 -916 -229 -171 -351 -279 -674 -598 -225
-223 -242 -243 -230 -261 8 -10 167 -171 354 -356 l340 -337 250 247 c273 269
304 298 415 387 41 33 77 63 80 66 3 3 66 49 140 102 368 263 769 456 1205
582 129 37 355 89 435 100 14 2 39 6 55 9 194 31 342 41 625 41 210 0 355 -6
460 -20 64 -9 235 -35 260 -40 14 -3 41 -8 60 -11 295 -54 638 -170 957 -324
1027 -496 1798 -1418 2108 -2520 15 -52 28 -102 30 -110 2 -8 13 -56 24 -107
41 -181 77 -447 86 -628 5 -97 5 -420 0 -475 -2 -25 -7 -78 -10 -119 -12 -144
-19 -192 -50 -366 -9 -49 -18 -99 -20 -110 -1 -11 -8 -40 -15 -65 -7 -25 -13
-52 -15 -60 -16 -81 -112 -391 -144 -465 -5 -11 -26 -60 -46 -110 -128 -310
-357 -702 -537 -920 -251 -304 -435 -489 -683 -685 -431 -342 -927 -588 -1465
-728 -113 -30 -285 -66 -365 -77 -23 -3 -51 -7 -64 -10 -13 -2 -46 -7 -75 -10
-28 -3 -67 -7 -86 -10 -222 -25 -650 -25 -835 0 -16 2 -73 9 -125 15 -52 6
-111 15 -130 20 -19 5 -53 11 -75 14 -31 4 -206 44 -315 71 -24 6 -168 51
-240 75 -384 128 -817 364 -1149 625 -217 170 -103 61 -1485 1429 -417 413
-863 855 -991 981 -128 127 -580 574 -1005 995 -1270 1258 -1259 1247 -1373
1333 -128 97 -293 189 -472 262 -118 49 -354 108 -480 121 -38 3 -81 8 -95 10
-37 5 -269 4 -315 -1 -22 -2 -65 -7 -95 -10 -253 -28 -568 -140 -797 -283
-283 -175 -535 -439 -695 -727 -117 -210 -208 -483 -233 -700 -4 -33 -9 -73
-11 -90 -5 -37 -5 -341 0 -375 2 -14 7 -49 11 -79 4 -30 9 -63 11 -75 2 -12 6
-32 9 -46 11 -56 14 -71 36 -151 48 -182 148 -400 259 -565 72 -107 77 -113
181 -233 186 -212 479 -417 749 -521 116 -46 273 -89 375 -106 22 -3 43 -8 46
-10 40 -24 558 -24 632 1 7 2 28 6 47 9 55 9 93 17 100 21 4 2 21 7 39 10 58
10 243 76 337 120 86 40 283 150 294 165 3 3 21 17 40 30 94 66 192 155 403
367 l198 199 -351 350 c-193 192 -353 351 -356 353 -2 3 -104 -94 -227 -216
-122 -121 -243 -234 -269 -251 -121 -82 -267 -141 -413 -165 -75 -13 -259 -14
-315 -3 -14 3 -38 8 -55 12 -62 12 -162 48 -237 85 -201 99 -374 281 -463 486
-61 140 -79 231 -80 388 0 160 6 204 41 316 61 193 172 352 345 495 46 38 162
102 239 133 207 82 468 89 679 20 93 -31 226 -100 278 -144 6 -5 25 -21 42
-34 36 -27 127 -117 1146 -1126 411 -407 861 -852 1000 -990 139 -137 596
-590 1015 -1005 1339 -1326 1352 -1339 1500 -1461 36 -30 76 -64 90 -77 14
-12 33 -25 43 -28 9 -3 17 -9 17 -13 0 -11 267 -201 395 -281 340 -213 702
-385 1075 -509 116 -39 383 -116 430 -125 14 -2 68 -14 120 -25 153 -34 299
-58 465 -76 33 -4 71 -9 85 -11 108 -18 631 -25 830 -11 189 13 323 28 405 43
11 2 40 7 65 10 74 10 318 60 425 88 55 15 111 29 125 32 49 10 378 122 495
169 407 161 800 382 1157 651 111 84 104 78 258 210 244 208 583 571 745 798
11 15 34 47 51 70 171 230 401 634 519 911 26 61 53 124 60 140 7 17 21 53 30
80 10 28 22 61 28 75 6 14 11 27 12 30 1 3 4 12 8 20 14 35 98 313 121 400 27
106 70 304 85 395 6 33 13 76 17 95 8 42 11 66 19 145 4 33 8 67 10 75 2 8 6
58 10 110 3 52 9 118 12 145 6 59 6 581 -1 610 -2 11 -7 70 -11 130 -4 61 -9
112 -10 115 -2 3 -6 33 -10 65 -7 63 -12 103 -20 145 -2 14 -6 41 -9 60 -3 19
-15 82 -26 140 -12 58 -23 116 -26 130 -3 14 -7 33 -10 42 -3 9 -7 25 -9 36
-8 45 -67 255 -99 352 -287 893 -814 1680 -1531 2289 -519 441 -1114 766
-1770 968 -147 45 -355 97 -475 119 -14 2 -47 9 -75 14 -57 11 -92 17 -150 25
-22 3 -51 8 -65 10 -25 5 -44 7 -200 24 -134 15 -633 34 -643 24z"/>
<path d="M4927 14243 c-1 0 -72 -4 -157 -7 -85 -4 -171 -8 -190 -10 -43 -6
-129 -15 -195 -21 -27 -3 -75 -10 -105 -15 -30 -5 -68 -12 -85 -14 -110 -14
-385 -75 -545 -121 -69 -20 -132 -38 -140 -40 -8 -2 -68 -22 -132 -44 -554
-193 -1049 -465 -1498 -825 -216 -173 -488 -435 -650 -626 -30 -36 -57 -67
-60 -70 -23 -22 -150 -185 -211 -270 -295 -411 -500 -799 -665 -1260 -58 -161
-149 -476 -167 -580 -3 -14 -10 -43 -15 -65 -6 -22 -14 -60 -17 -85 -4 -25
-10 -63 -15 -85 -5 -22 -11 -60 -15 -85 -3 -25 -8 -56 -10 -70 -6 -29 -11 -78
-20 -170 -4 -36 -9 -78 -11 -95 -26 -217 -21 -726 11 -992 3 -24 8 -64 11 -90
3 -27 9 -73 14 -103 5 -30 11 -71 14 -90 12 -79 66 -341 86 -410 81 -289 108
-373 171 -540 22 -58 44 -114 49 -125 5 -11 30 -67 55 -125 172 -390 394 -754
674 -1105 31 -38 66 -81 79 -95 12 -14 46 -53 75 -87 75 -89 365 -375 482
-474 331 -284 712 -533 1102 -721 78 -37 145 -68 148 -68 3 0 25 -9 48 -19
190 -87 617 -228 798 -265 13 -3 65 -14 114 -25 130 -29 335 -63 460 -76 33
-4 71 -8 85 -11 149 -26 862 -25 1022 1 23 4 76 10 166 20 26 3 59 8 74 11 15
3 39 7 55 9 33 4 67 10 143 25 30 6 66 14 80 16 149 29 455 115 632 178 186
66 276 103 461 190 65 31 119 56 121 56 9 0 279 151 356 199 195 122 439 294
554 391 273 232 500 455 674 666 l51 61 -344 341 c-189 188 -346 342 -350 342
-4 0 -98 -91 -210 -202 -263 -264 -351 -346 -460 -433 -28 -21 -52 -42 -55
-45 -13 -15 -203 -149 -303 -213 -281 -182 -621 -344 -939 -446 -102 -33 -386
-105 -453 -115 -22 -3 -62 -10 -90 -16 -66 -12 -119 -20 -180 -26 -27 -2 -59
-6 -70 -9 -89 -18 -523 -25 -720 -12 -108 8 -133 11 -225 23 -25 3 -60 7 -79
10 -35 4 -65 10 -111 19 -14 3 -52 10 -85 16 -302 53 -737 206 -1044 366 -129
68 -325 183 -329 195 -2 4 -7 8 -12 8 -5 0 -45 26 -90 58 -45 31 -92 64 -104
72 -167 115 -530 456 -688 645 -248 298 -459 635 -598 955 -22 52 -45 104 -50
115 -29 59 -127 353 -156 465 -8 30 -17 64 -20 75 -3 11 -7 31 -10 45 -3 14
-14 66 -24 115 -10 50 -21 106 -24 125 -3 19 -8 45 -10 57 -3 12 -7 50 -11 84
-4 35 -8 66 -10 69 -2 4 -10 92 -21 235 -13 170 -2 524 22 710 2 22 7 58 10
80 6 54 32 199 53 300 26 129 127 477 152 525 4 8 24 58 44 110 42 110 153
347 172 371 7 8 13 19 13 24 0 16 174 306 222 370 4 6 47 64 96 130 49 66 95
127 103 135 8 8 34 40 59 70 187 227 493 505 765 695 209 146 500 307 720 399
50 20 99 41 110 46 106 46 409 137 580 174 340 73 550 94 910 90 143 -1 283
-5 310 -8 28 -3 75 -8 105 -11 76 -8 296 -43 345 -54 22 -6 65 -16 95 -22 46
-10 92 -22 245 -63 6 -1 33 -10 60 -18 515 -164 966 -413 1385 -766 121 -102
150 -130 1060 -1032 419 -415 876 -867 1015 -1005 139 -137 585 -579 991 -981
1530 -1515 1529 -1514 1616 -1582 141 -111 331 -222 483 -282 80 -32 213 -77
250 -84 11 -3 52 -11 90 -19 192 -41 437 -54 635 -33 613 63 1171 420 1498
956 107 174 219 465 247 640 3 19 10 60 15 90 5 30 11 80 15 110 6 55 7 308 1
365 -26 247 -71 423 -161 630 -242 556 -730 975 -1315 1129 -52 14 -111 28
-130 31 -19 3 -42 8 -50 10 -15 4 -67 10 -165 21 -62 6 -283 6 -350 0 -43 -5
-140 -17 -155 -21 -3 -1 -25 -5 -50 -9 -225 -39 -517 -158 -715 -291 -150
-101 -218 -159 -463 -402 l-225 -222 356 -355 355 -356 214 213 c235 234 300
286 439 351 153 71 244 91 419 91 153 0 216 -10 332 -51 402 -144 667 -517
667 -939 0 -62 -4 -129 -9 -151 -5 -21 -11 -52 -13 -69 -25 -149 -134 -350
-258 -475 -191 -194 -424 -297 -690 -304 -226 -6 -450 65 -624 199 -38 29
-212 194 -386 367 -175 172 -658 651 -1075 1064 -418 414 -871 863 -1009 999
-137 136 -590 584 -1005 995 -415 411 -811 803 -880 871 -134 132 -283 268
-365 334 -27 22 -52 43 -55 46 -9 11 -215 165 -284 212 -55 39 -179 118 -302
194 -243 150 -661 340 -977 444 -187 61 -494 141 -627 163 -19 3 -46 8 -60 10
-53 10 -147 25 -185 30 -22 3 -56 8 -75 11 -37 5 -126 14 -200 20 -111 9 -498
23 -503 18z"/>
<path d="M13407 12764 c-1 -1 -54 -5 -118 -8 -64 -4 -127 -9 -140 -11 -13 -2
-51 -7 -84 -10 -256 -30 -648 -131 -847 -218 -18 -8 -62 -27 -98 -42 -189 -81
-436 -218 -615 -343 -189 -132 -315 -242 -609 -535 l-230 -228 355 -355 355
-355 235 233 c129 128 248 244 265 258 236 200 426 314 739 445 64 27 225 76
325 99 214 50 320 61 570 61 260 0 374 -13 600 -66 207 -49 467 -153 635 -252
28 -17 59 -35 70 -41 46 -25 166 -111 253 -180 392 -312 687 -742 831 -1211
27 -89 57 -205 66 -260 23 -133 24 -140 40 -290 6 -58 6 -320 0 -390 -25 -279
-102 -582 -207 -815 -29 -63 -84 -175 -101 -205 -70 -120 -178 -279 -237 -349
-84 -99 -121 -140 -194 -211 -240 -238 -521 -422 -836 -548 -146 -58 -391
-125 -525 -142 -27 -4 -53 -9 -56 -11 -14 -8 -215 -18 -359 -17 -338 1 -648
66 -963 199 -72 31 -136 60 -142 64 -5 4 -41 24 -80 45 -238 128 -388 251
-780 640 -148 147 -605 599 -1014 1004 -408 405 -855 846 -991 981 -136 135
-588 583 -1005 995 -416 413 -841 833 -943 934 -190 187 -343 324 -442 396
-30 21 -57 42 -60 45 -12 15 -169 120 -179 120 -6 0 -11 5 -11 10 0 6 -4 10
-10 10 -5 0 -34 15 -63 34 -308 197 -860 400 -1222 451 -23 3 -50 7 -60 9
-205 38 -681 50 -875 21 -14 -2 -50 -7 -80 -10 -90 -10 -220 -32 -293 -49 -37
-9 -79 -18 -95 -21 -69 -12 -321 -93 -461 -147 -864 -339 -1569 -1024 -1936
-1883 -65 -152 -145 -389 -171 -506 -2 -10 -6 -28 -9 -40 -2 -11 -7 -29 -10
-39 -7 -21 -9 -34 -30 -145 -16 -91 -21 -121 -30 -185 -3 -25 -8 -61 -10 -80
-23 -164 -23 -619 -1 -750 2 -14 7 -50 10 -80 28 -255 115 -584 228 -865 180
-445 427 -815 777 -1165 261 -260 553 -473 871 -634 151 -77 430 -196 458
-196 7 0 20 -4 30 -10 32 -18 263 -80 405 -109 90 -19 111 -22 212 -37 28 -3
59 -8 70 -10 142 -26 671 -25 855 1 421 61 750 158 1087 321 299 145 574 329
818 550 89 80 495 483 495 491 0 6 -701 703 -708 703 -2 0 -91 -87 -197 -192
-249 -249 -307 -303 -420 -388 -381 -286 -802 -450 -1275 -497 -141 -14 -466
-7 -570 11 -14 3 -43 7 -65 11 -22 3 -47 7 -55 10 -8 2 -31 6 -50 9 -132 20
-438 125 -605 208 -168 84 -371 217 -505 333 -63 53 -265 259 -305 310 -22 28
-42 52 -45 55 -20 20 -123 169 -172 248 -99 163 -237 473 -262 595 -3 12 -12
47 -20 77 -18 66 -27 111 -46 218 -21 122 -25 195 -25 412 0 194 9 341 20 361
2 3 6 26 9 53 9 70 52 248 88 356 114 348 312 677 568 944 422 440 949 698
1565 765 81 9 468 7 515 -2 14 -3 75 -13 135 -22 248 -38 542 -136 765 -258
249 -135 413 -260 656 -502 128 -127 1336 -1323 1899 -1880 154 -152 618 -611
1030 -1020 413 -408 881 -872 1040 -1030 160 -158 344 -335 411 -394 460 -404
1010 -672 1632 -796 69 -14 153 -28 186 -31 34 -3 63 -8 66 -9 15 -9 246 -20
415 -20 201 0 369 10 485 29 14 2 45 7 70 11 25 4 99 18 165 32 655 137 1254
458 1731 929 155 153 209 214 325 364 219 282 417 651 530 982 23 68 68 214
74 238 2 8 12 53 24 100 30 124 48 223 61 325 6 50 13 101 16 115 6 35 18 290
18 375 0 80 -12 323 -19 375 -10 81 -14 109 -25 175 -6 39 -13 81 -15 95 -19
132 -133 527 -191 658 -9 20 -20 46 -24 57 -33 79 -149 312 -196 392 -114 196
-309 463 -424 584 -254 266 -424 414 -640 559 -36 24 -76 51 -90 60 -48 32
-235 138 -316 178 -279 140 -665 267 -944 312 -36 5 -76 12 -89 15 -13 2 -49
7 -80 10 -31 4 -67 8 -81 11 -55 9 -465 24 -473 18z"/>
</g>
</svg>
