<?xml version="1.0" standalone="no"?>
<!DOCTYPE svg PUBLIC "-//W3C//DTD SVG 20010904//EN"
 "http://www.w3.org/TR/2001/REC-SVG-20010904/DTD/svg10.dtd">
<svg version="1.0" xmlns="http://www.w3.org/2000/svg"
 width="815.000000pt" height="815.000000pt" viewBox="0 0 815.000000 815.000000"
 preserveAspectRatio="xMidYMid meet">
<metadata>
Created by potrace 1.14, written by Peter Selinger 2001-2017
</metadata>
<g transform="translate(0.000000,815.000000) scale(0.100000,-0.100000)"
fill="#000000" stroke="none">
<path d="M2328 6154 c-2 -1 -45 -5 -96 -8 -129 -8 -179 -15 -275 -37 -45 -11
-92 -21 -104 -24 -92 -21 -345 -133 -448 -198 -183 -115 -238 -159 -379 -302
-144 -147 -263 -310 -349 -481 -41 -81 -88 -194 -81 -194 3 0 -2 -12 -10 -27
-12 -23 -39 -112 -41 -133 0 -3 -3 -10 -7 -16 -4 -6 -9 -26 -10 -43 -1 -18 -6
-35 -10 -37 -4 -3 -8 -23 -8 -44 0 -21 -3 -41 -8 -43 -4 -3 -8 -31 -10 -63 -2
-32 -9 -62 -15 -66 -9 -6 -9 -8 0 -8 12 0 10 -30 -3 -52 -5 -7 -2 -8 7 -3 11
6 12 5 2 -5 -9 -10 -10 -17 -2 -27 7 -7 7 -13 2 -13 -5 0 -9 -9 -10 -20 -1
-13 2 -18 10 -13 9 5 9 3 1 -8 -14 -18 -14 -52 0 -61 7 -5 7 -8 -3 -8 -7 0
-11 -6 -7 -15 3 -8 0 -15 -6 -15 -6 0 -3 -10 8 -22 10 -12 13 -18 7 -14 -9 5
-13 -2 -13 -23 0 -16 6 -32 13 -34 10 -4 10 -6 0 -6 -7 -1 -13 -8 -13 -16 0
-8 6 -15 13 -15 8 0 8 -3 1 -8 -13 -9 -26 -42 -16 -41 19 3 22 -3 11 -22 -6
-12 -7 -19 -1 -15 5 3 13 -1 16 -10 3 -8 2 -12 -3 -9 -5 3 -12 1 -16 -5 -3 -5
-1 -10 4 -10 6 0 11 -10 11 -22 -1 -43 8 -113 18 -138 5 -14 7 -31 4 -39 -3
-10 0 -11 9 -5 11 6 12 5 2 -7 -8 -10 -9 -19 -3 -25 5 -5 11 -23 13 -39 2 -17
9 -40 15 -51 6 -12 8 -24 5 -28 -3 -3 -1 -6 6 -6 7 0 9 -4 6 -10 -3 -5 -2 -10
3 -10 6 0 8 -9 5 -20 -4 -15 0 -20 13 -20 16 0 17 -2 4 -10 -8 -5 -10 -10 -3
-10 6 0 9 -9 6 -20 -3 -12 0 -20 6 -20 7 0 9 6 5 13 -4 6 -3 8 1 4 12 -10 15
-38 4 -32 -5 4 -6 -1 -3 -9 3 -9 9 -14 14 -11 4 2 6 -7 4 -20 -1 -14 3 -28 8
-32 7 -4 8 -1 3 8 -5 8 -4 10 0 6 9 -7 15 -28 17 -54 1 -7 5 -13 10 -13 5 0 6
-4 3 -10 -3 -5 -2 -10 4 -10 5 0 8 -10 6 -22 -4 -23 -4 -23 11 -3 15 19 15 19
8 -9 -5 -21 -4 -27 5 -22 7 5 11 -2 11 -18 0 -14 5 -26 10 -26 6 0 10 -6 10
-12 0 -19 46 -69 55 -60 4 4 2 -4 -5 -18 -7 -14 -9 -22 -5 -18 9 8 35 -14 28
-24 -2 -5 1 -8 7 -8 6 0 8 -4 5 -10 -3 -5 -1 -10 4 -10 6 0 11 -7 11 -15 0 -8
9 -19 20 -25 11 -6 20 -16 20 -22 0 -6 8 -17 18 -25 9 -8 11 -12 5 -8 -8 4
-11 1 -7 -9 3 -9 9 -15 12 -14 4 0 14 0 22 -1 13 -1 13 -2 0 -12 -12 -9 -11
-10 6 -6 13 3 21 -1 21 -9 0 -7 -4 -11 -9 -8 -13 9 -9 -6 7 -22 8 -9 15 -12
16 -7 0 4 5 -3 10 -16 6 -16 14 -21 25 -17 15 6 15 4 3 -11 -12 -15 -12 -16 2
-11 13 5 16 2 12 -12 -3 -12 2 -20 18 -25 12 -4 32 -18 44 -31 12 -13 25 -21
28 -17 4 3 7 -1 7 -10 0 -8 9 -19 20 -22 11 -4 18 -11 15 -16 -9 -13 9 -11 25
4 12 10 12 9 2 -5 -9 -11 -10 -18 -2 -23 6 -3 7 -11 4 -17 -4 -7 -2 -8 4 -4 6
4 19 -2 29 -14 10 -11 23 -20 30 -20 7 0 18 -10 24 -22 16 -30 41 -49 56 -43
7 2 12 1 12 -3 -3 -19 2 -23 16 -12 13 11 14 10 9 -4 -4 -10 0 -18 12 -23 26
-9 45 -29 36 -37 -3 -4 1 -4 11 0 9 3 17 1 17 -4 0 -6 9 -9 21 -7 17 3 19 1 9
-10 -9 -11 -6 -13 14 -11 15 2 23 -1 19 -7 -4 -6 2 -8 15 -5 12 3 21 3 20 -1
-2 -19 3 -31 12 -26 6 4 8 11 5 16 -3 5 1 6 10 2 13 -5 14 -7 3 -14 -10 -7 -9
-12 6 -26 19 -17 19 -17 7 0 -12 15 -12 17 3 11 9 -3 16 -10 16 -15 0 -5 9 -9
20 -9 11 0 20 -3 20 -8 0 -4 9 -13 21 -20 12 -8 18 -9 14 -3 -3 6 -2 11 3 11
6 0 12 -6 15 -14 3 -8 16 -13 31 -12 15 2 23 -1 19 -7 -4 -6 2 -8 15 -5 15 4
22 2 22 -8 0 -8 3 -13 8 -13 25 4 42 -2 36 -13 -5 -9 -2 -9 9 1 11 9 17 10 17
2 0 -6 9 -11 21 -11 13 0 18 -4 13 -12 -6 -10 -5 -10 7 -1 12 10 18 10 28 0 9
-9 14 -9 21 3 9 13 10 13 11 0 1 -8 1 -19 0 -24 -1 -5 5 -4 13 4 11 8 16 9 16
1 0 -6 3 -10 8 -10 28 5 52 -2 46 -13 -6 -10 -4 -10 8 0 13 10 17 10 20 0 3
-8 20 -11 47 -10 24 2 49 -2 57 -9 8 -6 14 -8 14 -4 0 4 6 2 14 -4 11 -9 16
-9 22 0 5 8 3 9 -6 4 -8 -5 -11 -4 -6 3 4 7 15 6 34 -4 17 -9 28 -10 31 -3 2
6 11 3 22 -7 19 -17 20 -17 13 2 -7 18 -7 18 16 -1 13 -11 20 -14 16 -7 -4 6
-3 12 1 12 5 0 15 -6 22 -12 9 -9 12 -9 7 -1 -4 8 4 10 26 8 18 -2 33 -4 33
-5 0 -8 36 -6 41 2 4 6 10 5 15 -3 6 -10 9 -11 9 -1 0 6 7 12 16 12 9 0 12 -5
8 -12 -6 -10 -4 -10 7 0 7 6 21 12 30 12 10 0 20 -6 22 -12 3 -8 6 -6 6 5 1
18 21 25 21 6 0 -5 5 -7 10 -4 6 4 7 12 3 18 -3 7 4 3 17 -8 13 -11 20 -15 17
-9 -9 15 11 23 51 20 17 -1 29 2 26 6 -8 13 11 9 25 -4 9 -9 12 -9 7 -1 -7 13
28 28 44 18 5 -3 10 -1 10 5 0 6 5 8 10 5 6 -4 17 -1 25 5 8 7 15 9 15 4 0 -5
5 -2 10 6 7 11 10 11 10 2 0 -7 5 -10 10 -7 6 4 8 11 5 16 -3 5 2 6 11 2 10
-4 15 -2 11 3 -4 7 6 9 25 6 21 -3 29 -1 24 7 -4 6 -2 11 3 11 6 0 11 -5 11
-11 0 -6 7 -3 16 6 13 13 19 13 32 3 10 -9 13 -9 9 -1 -10 16 11 27 27 14 11
-9 14 -8 12 6 -1 13 6 18 24 18 14 0 29 6 33 13 4 6 17 12 27 12 11 0 20 6 20
13 0 9 2 9 9 -1 6 -11 10 -10 15 3 5 15 9 15 23 4 10 -8 14 -9 10 -2 -9 15 29
43 54 38 12 -3 16 1 12 11 -3 9 2 14 16 14 12 0 21 5 21 10 0 6 5 10 11 10 5
0 7 -6 4 -12 -4 -7 3 -2 15 12 12 14 19 18 15 10 -4 -10 -2 -9 8 2 8 10 17 15
20 11 4 -3 9 2 13 11 3 9 10 13 15 10 5 -3 12 1 15 10 3 9 12 12 21 9 11 -4
14 -2 9 5 -4 7 -1 12 9 12 9 0 13 5 10 11 -4 6 0 9 11 7 13 -2 19 3 18 15 -2
14 1 15 12 6 11 -9 14 -8 14 6 0 11 5 15 15 11 13 -5 19 5 16 26 0 4 5 5 12 3
6 -3 25 10 41 29 16 20 34 32 42 29 8 -3 14 0 14 7 0 15 67 80 74 72 5 -5 10
22 7 40 0 4 5 5 13 2 8 -3 17 0 22 7 5 8 3 10 -7 4 -12 -8 -12 -6 0 8 7 9 20
17 28 17 8 0 11 4 8 10 -3 6 2 10 12 10 15 0 16 2 3 10 -13 9 -13 10 0 11 8 1
18 1 21 1 4 -1 4 8 1 20 -3 14 -1 19 6 14 7 -4 12 -1 12 8 0 8 8 20 18 25 16
10 16 10 -1 11 -10 0 -16 4 -12 10 3 5 11 7 19 4 7 -3 13 2 13 10 0 8 -5 12
-11 9 -6 -3 -5 0 2 8 15 16 16 39 1 39 -5 0 -7 -6 -3 -12 4 -8 3 -10 -2 -5 -5
5 -9 14 -9 20 -1 7 -6 11 -12 10 -6 -1 -9 6 -6 18 5 18 2 20 -18 15 -13 -3
-18 -3 -11 0 6 3 10 10 7 15 -4 5 2 7 12 4 10 -3 5 1 -12 9 -16 8 -24 15 -17
16 7 0 10 5 7 10 -4 6 -11 8 -16 5 -5 -4 -9 1 -9 9 0 9 5 16 12 16 6 0 8 3 5
6 -4 4 -14 1 -24 -7 -9 -8 -14 -9 -11 -4 3 6 1 21 -5 35 -5 14 -11 31 -13 38
-1 8 -4 15 -6 18 -7 6 -48 -8 -48 -18 0 -5 5 -6 12 -2 7 5 8 3 4 -5 -5 -7 -14
-10 -22 -7 -8 3 -13 2 -13 -2 3 -19 -2 -33 -11 -27 -5 3 -12 -5 -16 -19 -3
-14 -9 -24 -13 -23 -3 1 -8 -2 -10 -8 -17 -46 -155 -182 -277 -272 -202 -150
-505 -282 -709 -309 -22 -3 -65 -9 -95 -14 -59 -10 -353 -6 -410 4 -119 23
-152 30 -210 48 -36 11 -69 24 -74 29 -6 5 -18 9 -27 9 -20 0 -222 99 -227
112 -2 4 -8 8 -13 8 -21 0 -169 102 -162 113 3 5 2 7 -4 4 -32 -20 -312 274
-409 428 -10 17 -23 33 -29 37 -5 4 -6 8 -1 8 5 0 2 8 -7 18 -27 30 -138 263
-152 322 -1 3 -4 12 -8 20 -9 23 -45 151 -51 185 -14 77 -17 95 -21 173 -2 45
-7 88 -11 94 -4 7 -2 14 4 16 7 2 9 9 5 15 -10 17 -11 99 -1 119 5 10 4 19 -2
23 -6 4 -8 10 -6 14 4 7 17 107 18 141 1 8 5 21 11 28 6 8 6 12 -3 12 -10 0
-10 3 0 15 7 9 10 18 7 22 -3 3 0 21 8 39 10 25 11 34 2 34 -7 0 -6 4 3 10 8
5 12 10 7 10 -4 0 -1 15 7 34 11 26 11 37 3 46 -9 10 -9 11 1 6 11 -7 13 -3
16 37 1 6 7 18 14 25 7 8 10 17 7 22 -3 5 -1 11 5 15 6 4 8 11 5 16 -4 5 -1 9
4 9 6 0 11 9 11 19 0 11 5 23 10 26 6 4 8 11 5 16 -4 5 -1 9 5 9 6 0 8 5 5 10
-3 6 1 13 9 16 9 3 14 10 11 14 -3 4 4 18 14 31 10 13 19 28 19 32 0 5 9 19
19 31 11 12 18 27 15 34 -2 7 3 15 12 18 9 3 16 12 16 20 0 8 5 14 10 14 6 0
10 7 10 15 0 8 5 15 12 15 6 0 9 3 5 6 -3 3 2 14 11 23 10 10 41 45 71 79 30
34 59 58 64 55 6 -3 7 -2 4 4 -7 11 82 107 108 117 8 3 15 10 15 17 0 6 7 9
15 5 8 -3 14 -2 14 2 -3 19 2 23 16 12 13 -11 14 -10 10 2 -4 11 6 23 29 38
20 12 36 26 36 31 0 6 5 7 10 4 6 -3 10 -1 10 4 0 6 7 11 15 11 8 0 15 5 15
11 0 5 5 7 10 4 6 -3 10 -2 10 4 0 6 7 7 17 4 10 -4 14 -2 9 5 -3 6 3 13 14
17 11 3 20 11 20 16 0 6 5 7 10 4 6 -4 17 -1 25 5 8 7 15 9 15 4 0 -5 5 -1 11
9 5 9 19 17 29 17 10 0 22 5 26 11 3 6 15 9 25 6 11 -3 17 -2 14 3 -5 8 71 40
98 40 12 0 16 4 11 13 -4 6 -4 9 0 5 4 -3 27 -1 50 6 23 7 51 12 63 11 12 -1
20 2 18 6 -3 4 2 9 10 13 8 3 15 0 15 -7 0 -8 3 -8 9 2 6 8 19 12 35 9 15 -3
29 -1 32 4 3 5 12 7 20 4 8 -3 14 -1 14 4 0 5 8 9 18 9 47 0 119 8 130 15 7 4
12 2 12 -3 0 -6 5 -11 11 -11 5 0 8 4 5 8 -3 5 1 9 9 9 8 0 15 -4 15 -9 0 -5
9 -4 20 2 15 8 20 8 20 -2 0 -9 3 -9 12 0 13 13 32 16 24 4 -2 -4 4 -8 14 -8
10 0 16 4 14 8 -3 4 0 8 5 8 6 0 11 -4 11 -10 0 -6 9 -6 25 0 17 7 25 6 25 -1
0 -8 5 -7 15 1 11 9 15 9 15 1 0 -7 5 -9 10 -6 6 3 10 2 10 -2 0 -5 15 -7 34
-5 18 2 37 -1 40 -7 4 -6 13 -11 19 -11 7 0 6 4 -3 10 -8 5 -10 10 -4 10 6 0
14 -3 18 -7 3 -4 14 -8 24 -9 9 -2 28 -5 42 -7 14 -3 43 -8 65 -12 22 -4 43
-12 47 -18 4 -7 21 -10 39 -9 17 2 29 0 26 -5 -3 -5 6 -10 21 -11 14 -1 28 -5
31 -10 3 -4 15 -9 26 -10 10 -2 37 -12 60 -22 22 -10 59 -26 82 -36 23 -9 39
-22 36 -27 -3 -6 -1 -7 5 -3 12 7 94 -31 100 -46 2 -5 12 -8 22 -8 10 0 20 -3
22 -7 2 -5 28 -25 58 -45 95 -65 103 -71 178 -132 206 -165 372 -363 941
-1121 107 -143 198 -262 201 -265 3 -3 10 -12 15 -21 46 -76 266 -353 312
-395 12 -12 23 -26 23 -33 0 -6 6 -11 14 -11 7 0 21 -12 31 -26 9 -14 19 -23
22 -21 2 3 18 -9 34 -25 16 -17 29 -27 29 -23 0 5 6 1 13 -10 9 -12 19 -15 28
-10 12 8 12 6 0 -9 -8 -9 -10 -16 -5 -15 17 3 54 -13 54 -23 0 -6 9 -8 20 -5
11 3 17 1 14 -4 -7 -12 76 -50 91 -42 5 4 6 2 2 -2 -12 -14 55 -43 76 -33 9 5
17 5 16 1 -4 -22 3 -31 20 -26 10 3 22 0 25 -6 4 -5 13 -8 21 -4 8 3 15 1 15
-4 0 -5 14 -8 30 -7 17 1 30 -1 30 -5 0 -4 10 -8 23 -8 12 -1 45 -3 72 -4 28
-2 57 1 64 6 9 5 12 4 8 -2 -4 -6 0 -13 8 -17 8 -3 17 0 21 6 5 7 2 8 -6 3 -9
-6 -11 -4 -5 4 5 9 10 10 18 2 15 -15 30 -14 20 2 -4 6 6 4 21 -7 16 -10 26
-13 22 -8 -9 15 7 23 24 12 15 -10 42 -2 35 10 -3 5 -1 12 5 15 6 4 9 1 8 -6
-2 -6 3 -14 10 -16 6 -3 12 1 12 7 0 9 4 9 16 0 8 -8 14 -9 13 -4 -4 23 2 26
16 8 13 -16 14 -16 9 -1 -5 13 -2 16 10 11 9 -3 23 -1 31 6 8 7 15 9 15 5 0
-4 7 -2 15 5 8 7 15 9 15 5 0 -4 7 -2 15 5 8 6 20 8 26 4 8 -5 10 -2 7 8 -5
11 0 15 15 14 28 -3 49 13 40 28 -4 6 1 5 10 -3 14 -11 18 -11 23 4 5 13 9 14
15 3 7 -10 9 -9 9 5 0 10 5 15 10 12 6 -3 10 -1 10 5 0 6 5 8 10 5 6 -3 10 -1
10 5 0 6 5 8 10 5 6 -3 10 -2 10 4 0 5 9 13 20 16 11 3 20 11 20 16 0 6 -6 7
-12 3 -7 -4 -9 -3 -5 2 4 4 18 9 30 9 14 0 23 8 28 25 4 14 7 19 8 12 1 -8 17
2 36 23 20 20 33 40 30 45 -3 5 0 12 6 16 8 4 9 3 5 -4 -4 -7 -2 -12 3 -12 6
0 11 4 11 9 0 5 8 17 18 27 9 10 17 22 17 28 1 6 5 10 11 9 5 -1 11 7 11 18 2
24 -6 24 -24 2 -13 -16 -13 -16 -3 5 6 12 16 22 23 21 25 -3 38 1 32 11 -4 6
-12 7 -18 3 -7 -4 -6 0 2 10 15 19 26 23 15 5 -4 -7 -3 -8 4 -4 7 4 12 16 12
27 0 11 5 17 10 14 6 -3 10 3 10 14 0 11 5 23 11 26 6 4 8 14 4 22 -4 13 -3
13 8 4 12 -9 13 -7 9 14 -2 14 0 25 7 25 5 0 8 7 5 15 -4 8 -1 15 6 15 10 0
10 3 0 15 -10 12 -9 16 2 20 8 3 15 11 15 18 0 7 4 27 7 46 13 65 18 126 19
236 1 61 7 113 12 117 6 5 6 8 -2 8 -6 0 -10 11 -8 25 1 14 -1 27 -5 30 -4 2
-7 21 -8 41 -1 21 -5 40 -9 43 -5 3 -9 21 -11 39 -1 18 -9 43 -17 55 -8 13
-16 32 -18 44 -1 12 -7 27 -13 35 -5 7 -16 27 -24 43 -8 17 -18 32 -21 35 -3
3 -14 19 -23 37 -25 49 -174 196 -231 228 -27 16 -57 34 -65 40 -29 22 -159
74 -242 97 -70 19 -109 22 -243 22 -161 1 -227 -9 -353 -50 -61 -20 -212 -95
-212 -106 0 -4 -5 -8 -11 -8 -12 0 -95 -61 -134 -97 -7 -7 -16 -9 -20 -5 -5 4
-5 -1 -2 -10 3 -10 3 -17 -1 -17 -19 3 -33 -2 -28 -10 3 -5 -1 -12 -10 -15 -8
-3 -12 -11 -8 -17 4 -7 3 -9 -3 -6 -13 8 -45 -31 -37 -46 4 -7 4 -9 -1 -5 -16
15 -71 -64 -58 -85 3 -6 1 -7 -5 -3 -14 8 -31 -24 -24 -44 6 -19 65 -104 75
-108 4 -2 7 -10 7 -18 0 -8 7 -17 15 -20 8 -4 12 -10 9 -15 -3 -5 0 -9 5 -9 6
0 11 -7 11 -15 0 -8 5 -15 10 -15 6 0 10 -5 10 -11 0 -7 10 -20 22 -30 11 -11
16 -19 9 -19 -9 0 -8 -4 2 -15 20 -19 41 -23 43 -7 1 6 2 17 3 23 0 5 7 7 14
3 6 -4 9 -4 5 1 -8 9 22 65 35 65 4 0 5 5 2 10 -3 6 -1 10 4 10 6 0 11 6 11
13 0 7 9 23 20 35 11 12 20 24 20 26 0 19 110 127 122 120 4 -3 7 -2 6 3 -2 4
0 9 5 10 16 5 35 28 29 37 -3 5 5 6 17 3 13 -3 20 -3 17 0 -10 10 33 35 46 27
6 -4 8 -3 5 3 -4 6 4 14 18 17 14 4 25 11 25 16 0 6 5 10 11 10 5 0 7 -5 3
-11 -3 -6 5 -3 20 6 14 10 26 13 26 9 0 -5 5 -2 10 6 9 13 10 13 10 0 0 -11 3
-12 8 -3 4 6 19 13 34 15 15 2 30 7 34 11 4 4 14 1 22 -6 10 -7 13 -8 9 -1 -9
15 43 15 62 0 11 -8 13 -8 8 1 -10 16 82 15 102 -1 11 -8 13 -8 7 2 -4 6 -2
12 3 12 6 0 11 -6 11 -12 0 -10 2 -10 8 -1 5 8 13 9 22 3 8 -6 25 -10 37 -10
12 0 34 -5 50 -12 15 -6 34 -10 41 -9 6 1 12 -3 12 -9 0 -5 7 -10 15 -10 17 0
56 -20 66 -33 3 -5 9 -8 13 -8 11 2 56 -32 102 -79 68 -69 71 -73 78 -97 4
-13 14 -23 23 -23 9 0 13 -6 9 -15 -3 -9 0 -18 7 -20 6 -3 13 -17 14 -32 0
-15 6 -29 12 -31 6 -2 11 -17 11 -32 0 -16 4 -31 8 -34 7 -4 11 -36 14 -116 1
-8 6 -18 12 -22 7 -5 7 -8 1 -8 -6 0 -10 -17 -10 -37 0 -21 -3 -56 -8 -78 -5
-22 -11 -51 -13 -65 -6 -32 -75 -159 -105 -195 -144 -169 -320 -249 -543 -244
-144 3 -256 37 -396 122 -105 64 -217 189 -460 512 -828 1103 -1088 1402
-1400 1609 -69 46 -145 94 -170 107 -25 13 -46 27 -48 32 -2 4 -8 7 -13 7 -4
0 -39 14 -76 31 -180 83 -385 143 -578 170 -71 9 -291 20 -297 13z m4272
-2440 c0 -8 -19 -13 -24 -6 -3 5 1 9 9 9 8 0 15 -2 15 -3z m-135 -193 c3 -5 2
-12 -3 -15 -5 -3 -9 1 -9 9 0 17 3 19 12 6z m-175 -136 c0 -5 -5 -3 -10 5 -5
8 -10 20 -10 25 0 6 5 3 10 -5 5 -8 10 -19 10 -25z m-525 -94 c3 -5 2 -12 -3
-15 -5 -3 -9 1 -9 9 0 17 3 19 12 6z m365 4 c0 -7 -30 -13 -34 -7 -3 4 4 9 15
9 10 1 19 0 19 -2z m-2345 -94 c3 -5 2 -12 -3 -15 -5 -3 -9 1 -9 9 0 17 3 19
12 6z m-2860 -220 c3 -5 2 -12 -3 -15 -5 -3 -9 1 -9 9 0 17 3 19 12 6z m116
-184 c-6 -8 -7 -18 -3 -22 4 -5 1 -5 -6 -1 -10 6 -10 11 -1 22 6 8 14 14 16
14 3 0 0 -6 -6 -13z m69 -27 c0 -5 -5 -10 -11 -10 -5 0 -7 5 -4 10 3 6 8 10
11 10 2 0 4 -4 4 -10z m116 -112 c5 4 5 3 1 -2 -12 -15 -34 -15 -34 0 0 9 4
11 12 4 7 -5 16 -6 21 -2z m38 -47 c-8 -8 -43 -8 -38 0 2 4 13 7 24 6 10 -1
17 -3 14 -6z m46 -15 c0 -3 -4 -8 -10 -11 -5 -3 -10 -1 -10 4 0 6 5 11 10 11
6 0 10 -2 10 -4z m-15 -46 c10 -11 16 -20 13 -20 -3 0 -13 9 -23 20 -10 11
-16 20 -13 20 3 0 13 -9 23 -20z m180 -80 c3 -6 -1 -7 -9 -4 -18 7 -21 14 -7
14 6 0 13 -4 16 -10z"/>
<path d="M5627 6153 c-2 -1 -30 -5 -63 -7 -85 -7 -285 -51 -395 -87 -198 -66
-406 -175 -584 -308 -76 -57 -230 -209 -288 -284 -41 -53 -44 -60 -34 -87 6
-16 15 -27 19 -24 4 3 9 0 9 -5 1 -6 2 -14 3 -18 2 -10 35 -58 63 -90 13 -14
20 -29 17 -34 -3 -5 0 -9 5 -9 6 0 11 -5 11 -11 0 -6 7 -17 15 -26 14 -14 18
-13 35 7 11 13 20 26 20 29 0 3 14 20 30 38 17 18 30 37 30 44 0 7 3 10 6 6 3
-3 27 16 52 44 25 27 52 49 60 49 9 0 12 3 9 6 -9 10 64 65 76 57 5 -3 7 -1 4
4 -7 11 39 46 60 46 6 0 12 3 11 6 -3 28 2 33 20 20 9 -7 14 -10 10 -5 -7 8
32 46 48 46 4 0 15 6 23 14 9 8 23 16 31 18 8 2 21 9 28 16 8 7 18 9 24 6 6
-4 8 -2 4 4 -8 13 29 26 45 16 8 -4 9 -3 5 4 -4 7 3 14 19 18 14 3 25 11 25
17 0 6 3 7 7 4 3 -4 12 -2 19 4 8 6 21 9 29 5 9 -3 13 -2 10 4 -5 9 1 12 21 9
4 0 10 3 13 8 10 13 64 30 93 29 15 -1 26 3 25 8 -2 11 81 28 96 19 6 -3 7 -1
3 5 -7 11 25 17 62 13 6 -1 12 2 12 7 0 5 20 8 45 8 25 -1 45 2 45 5 0 3 18 5
40 4 23 -1 40 3 40 9 0 6 4 5 9 -3 6 -9 11 -10 15 -2 5 7 13 8 25 2 10 -6 23
-6 31 -1 9 5 20 4 29 -3 11 -9 13 -9 8 0 -8 13 30 12 52 -2 10 -6 12 -4 6 5
-5 8 -3 11 6 8 8 -3 13 -11 11 -17 -1 -7 2 -10 8 -6 6 3 8 11 5 16 -4 5 1 9 9
9 8 0 18 -5 21 -10 5 -8 11 -7 21 1 11 9 14 8 14 -2 0 -9 3 -10 8 -4 10 15 68
11 64 -4 -1 -8 2 -10 10 -5 18 12 52 11 60 -1 5 -6 8 -5 8 3 0 10 4 10 23 0
23 -12 29 -13 85 -19 17 -2 32 -6 32 -9 0 -3 13 -6 28 -7 15 -1 41 -7 57 -14
17 -7 34 -11 39 -10 4 1 13 -2 20 -7 14 -11 88 -37 99 -34 4 1 7 -3 7 -8 0 -6
8 -10 19 -10 10 0 24 -7 31 -15 7 -9 15 -13 18 -11 10 10 42 -15 35 -27 -4 -7
2 -5 12 3 15 12 17 12 10 1 -6 -11 -3 -13 13 -9 15 4 22 2 22 -8 0 -8 7 -14
15 -14 26 0 157 -89 149 -102 -4 -7 -3 -8 4 -4 10 6 71 -36 142 -98 28 -25
170 -176 170 -182 0 -3 16 -25 36 -49 20 -23 36 -46 34 -51 -1 -4 5 -11 14
-16 9 -5 16 -13 16 -18 0 -5 13 -28 29 -52 38 -58 123 -241 126 -273 0 -5 4
-16 9 -24 5 -7 11 -30 13 -50 3 -20 8 -38 12 -41 3 -3 8 -18 10 -35 1 -16 8
-36 13 -43 6 -7 8 -15 4 -19 -3 -3 -6 0 -6 7 0 7 -3 10 -6 7 -4 -4 -2 -13 4
-20 6 -7 13 -36 15 -63 2 -28 6 -55 10 -60 7 -12 2 -395 -7 -449 -3 -22 -9
-56 -11 -75 -6 -39 -33 -147 -42 -170 -3 -8 -7 -19 -8 -25 -8 -30 -52 -141
-86 -213 -21 -46 -39 -85 -39 -87 0 -10 -110 -181 -158 -245 -111 -150 -312
-330 -477 -427 -57 -34 -248 -123 -300 -141 -77 -26 -209 -60 -260 -67 -22 -2
-62 -8 -90 -12 -59 -8 -285 -8 -353 1 -129 17 -209 33 -292 57 -147 45 -332
135 -465 228 -111 78 -106 73 -240 206 -134 133 -182 192 -465 565 -107 142
-276 365 -375 495 -507 669 -654 824 -894 944 -294 147 -612 155 -881 22 -52
-26 -131 -73 -154 -92 -60 -49 -103 -87 -117 -104 -10 -11 -28 -31 -40 -45
-55 -63 -120 -183 -149 -275 -7 -22 -15 -47 -18 -55 -18 -53 -24 -107 -27
-260 -2 -79 -1 -149 3 -155 6 -9 10 -32 13 -75 1 -8 6 -20 11 -27 5 -6 10 -25
10 -42 1 -17 6 -31 11 -31 6 0 8 -3 4 -6 -3 -4 0 -19 8 -34 8 -15 11 -30 8
-34 -4 -3 -1 -6 6 -6 7 0 9 -4 6 -10 -3 -5 -1 -10 5 -10 6 0 9 -4 5 -9 -3 -5
2 -16 10 -24 8 -9 15 -23 15 -31 0 -9 7 -16 16 -16 8 0 13 -4 10 -9 -9 -13 18
-61 31 -57 7 3 10 0 7 -7 -6 -16 53 -87 72 -87 9 0 12 5 8 12 -5 7 -3 8 6 3
10 -6 9 -11 -5 -22 -17 -12 -18 -13 -1 -13 9 0 14 -4 11 -10 -3 -5 1 -10 9
-10 8 0 18 -9 21 -20 4 -11 10 -18 15 -15 4 3 16 -3 27 -13 10 -9 13 -13 6 -8
-8 5 -13 4 -13 -2 0 -16 26 -22 39 -9 9 9 11 8 6 -4 -7 -18 28 -49 54 -49 7 0
22 -10 32 -22 13 -14 19 -17 19 -7 1 8 7 3 15 -11 13 -22 21 -16 16 13 -1 5 3
6 8 2 6 -3 8 -12 5 -19 -3 -8 0 -17 7 -22 8 -5 10 -3 5 7 -4 8 -1 6 7 -3 15
-19 32 -25 22 -8 -3 6 -1 10 4 10 6 0 11 -6 11 -14 0 -22 19 -29 37 -14 14 11
16 11 8 -1 -6 -11 -4 -13 8 -8 12 4 17 1 18 -11 0 -10 3 -12 6 -4 6 15 33 16
33 1 0 -6 9 -9 20 -6 14 3 20 0 20 -10 0 -12 4 -11 18 4 9 10 13 14 9 7 -4 -7
-3 -15 3 -19 5 -3 10 0 10 7 0 10 2 10 9 -1 5 -8 18 -12 29 -8 12 2 23 0 26
-7 2 -6 5 -6 5 -1 1 6 20 9 46 7 32 -3 45 0 45 9 0 8 6 5 15 -7 8 -10 15 -14
15 -9 0 11 49 13 66 2 7 -4 17 0 24 9 11 12 15 12 21 2 7 -10 9 -10 9 0 0 7
13 12 31 12 16 0 28 4 25 9 -3 4 12 8 34 7 21 -1 36 2 34 6 -3 4 0 8 5 8 33 0
63 18 55 32 -4 7 -3 8 5 4 6 -4 9 -12 6 -17 -4 -5 -1 -9 4 -9 6 0 11 10 11 23
0 12 4 18 8 12 9 -13 35 -18 27 -5 -3 5 0 10 7 10 19 0 68 23 68 33 0 4 -5 7
-12 7 -17 0 -3 10 21 15 12 2 19 0 16 -6 -4 -5 -11 -6 -17 -3 -7 4 -8 2 -4 -4
5 -9 12 -9 26 0 12 8 16 16 10 23 -5 6 0 11 16 12 52 5 54 6 42 20 -8 11 -7
12 6 7 10 -4 18 0 22 10 3 9 10 14 14 11 4 -3 11 2 14 11 3 9 12 14 20 11 10
-4 12 3 10 26 -4 29 -3 30 11 11 8 -10 15 -14 14 -9 -3 21 1 36 9 32 4 -3 13
1 20 9 7 8 10 14 5 14 -4 0 2 7 13 15 16 13 17 16 4 25 -13 10 -13 11 0 9 36
-4 43 0 30 16 -11 13 -10 14 4 9 12 -4 16 0 16 16 0 11 5 18 10 15 6 -3 10 1
10 9 0 9 4 16 9 16 5 0 17 18 27 40 10 22 21 40 26 40 4 0 8 3 7 8 -2 15 14
52 22 52 12 0 0 52 -15 65 -6 6 -12 17 -14 25 -2 8 -11 23 -19 33 -9 9 -12 17
-7 17 5 0 1 5 -9 11 -9 6 -15 14 -12 20 4 5 2 9 -3 9 -5 0 -21 23 -36 51 -21
38 -32 49 -44 44 -14 -5 -15 -4 -4 6 14 15 16 33 2 24 -9 -6 -14 8 -11 28 0 4
-3 7 -9 7 -5 0 -10 -7 -10 -16 0 -8 -4 -13 -8 -10 -5 3 -9 -1 -9 -9 0 -8 4
-12 8 -9 4 2 11 -1 15 -7 4 -7 3 -9 -3 -6 -11 7 -30 -9 -33 -28 -1 -5 -6 -20
-11 -33 -5 -13 -9 -25 -9 -26 0 -2 -9 -24 -20 -50 -12 -25 -21 -48 -20 -51 0
-3 -9 -14 -20 -25 -12 -12 -18 -26 -14 -32 4 -7 3 -8 -4 -4 -7 4 -12 4 -12 -1
0 -4 -12 -21 -26 -38 -14 -16 -29 -34 -32 -40 -7 -9 -63 -59 -108 -95 -17 -14
-117 -65 -179 -91 -90 -39 -290 -47 -400 -16 -132 37 -246 114 -333 226 -35
44 -79 121 -87 151 -1 3 -4 12 -7 20 -18 45 -27 83 -23 90 3 5 2 11 -3 14 -13
8 -3 220 11 244 5 6 5 17 2 22 -3 6 -1 10 5 10 6 0 9 4 5 9 -3 5 -1 12 5 16 6
4 8 10 5 15 -3 5 2 16 11 24 9 9 14 23 11 30 -3 8 1 17 9 20 8 3 14 12 14 21
0 8 5 15 11 15 5 0 7 5 4 10 -3 6 1 10 10 10 9 0 14 4 11 8 -6 10 44 66 67 75
10 4 15 11 12 17 -5 9 9 15 18 8 2 -2 15 10 30 26 15 16 27 25 27 21 0 -5 7 0
16 11 8 10 12 12 8 4 -5 -8 4 -5 20 8 16 12 35 22 42 22 8 0 14 6 14 13 0 8 4
7 10 -3 5 -8 10 -10 10 -5 0 17 46 33 65 22 13 -7 16 -6 11 2 -5 7 2 11 19 11
15 0 36 5 47 11 15 8 19 8 14 0 -4 -6 -3 -11 3 -11 5 0 12 4 15 8 6 10 42 9
52 -1 4 -4 14 -2 21 5 11 9 17 9 25 -3 7 -10 11 -11 14 -2 4 8 13 9 29 3 13
-5 32 -9 42 -9 40 -1 53 -5 53 -14 0 -6 3 -8 6 -5 3 4 20 2 37 -4 18 -5 39
-11 47 -13 8 -2 17 -4 20 -5 3 -1 8 -2 13 -1 4 0 7 -3 7 -9 0 -5 9 -10 20 -10
11 0 20 -4 20 -10 0 -5 7 -10 15 -10 17 0 83 -39 108 -65 10 -9 17 -14 17 -12
0 19 323 -301 379 -375 22 -29 81 -107 132 -173 51 -66 154 -201 228 -300 74
-99 139 -184 143 -190 5 -5 31 -41 58 -78 27 -37 54 -73 60 -80 6 -7 76 -100
156 -207 80 -107 155 -203 166 -214 10 -10 17 -25 14 -33 -3 -8 -2 -12 3 -9 5
3 20 -10 35 -28 14 -19 32 -41 40 -49 8 -8 12 -17 9 -21 -4 -3 1 -6 10 -6 10
0 17 -4 17 -9 0 -5 48 -57 108 -115 178 -177 180 -179 197 -172 9 3 14 2 11
-2 -5 -9 20 -34 53 -52 13 -6 19 -16 14 -23 -4 -7 2 -5 13 3 10 8 16 11 12 6
-9 -11 16 -36 36 -36 9 0 16 -8 16 -17 0 -15 2 -16 10 -3 7 11 10 12 10 2 0
-9 7 -11 23 -7 17 5 19 4 7 -4 -13 -10 -8 -15 13 -12 4 0 7 -3 7 -9 0 -5 10
-14 21 -21 16 -8 20 -8 14 1 -5 8 -1 8 13 -1 12 -7 18 -18 14 -24 -3 -5 2 -4
12 4 9 8 16 10 15 5 -4 -21 2 -28 11 -14 8 13 10 12 10 -2 0 -13 8 -18 26 -18
14 0 23 -4 20 -8 -2 -4 15 -14 40 -21 24 -7 44 -18 44 -23 0 -6 6 -5 15 2 12
10 16 9 21 -4 5 -13 9 -14 20 -5 11 9 14 8 14 -5 0 -9 3 -15 8 -15 21 4 53 -2
49 -8 -3 -5 9 -9 26 -10 17 -1 33 -6 36 -10 8 -10 32 -10 49 1 8 5 12 3 10 -6
-2 -7 3 -12 10 -11 6 2 12 -1 12 -6 0 -5 12 -8 26 -5 14 3 23 1 20 -4 -2 -4 8
-7 25 -6 16 1 29 -3 29 -9 0 -8 3 -8 8 -2 10 14 32 17 32 5 0 -12 22 -9 32 5
5 6 8 4 8 -5 0 -12 11 -15 50 -13 36 1 49 -2 44 -10 -5 -9 -3 -9 6 0 11 10 16
9 27 -5 12 -16 13 -16 6 2 -4 13 -3 17 4 13 6 -4 14 -1 16 5 4 9 6 8 6 -3 1
-18 29 -21 49 -6 8 6 12 6 12 -2 0 -6 5 -11 10 -11 7 0 7 7 0 23 -11 21 -11
21 5 2 19 -24 62 -28 75 -6 8 14 9 13 10 -4 0 -11 4 -15 8 -10 10 14 52 15 52
1 0 -7 3 -7 8 1 4 7 31 14 60 16 33 2 57 8 62 17 8 12 10 11 10 -5 0 -12 3
-16 8 -9 4 6 19 10 34 10 18 -1 24 2 18 9 -11 13 69 14 90 1 13 -8 13 -7 2 6
-9 11 -10 18 -2 23 5 3 10 2 10 -2 0 -5 9 -9 19 -9 11 0 17 5 14 10 -4 5 3 7
16 3 18 -4 20 -3 11 8 -9 10 -7 13 7 10 10 -1 17 -8 15 -15 -1 -6 2 -9 8 -5 6
3 8 11 5 16 -4 5 3 9 14 9 11 0 23 5 26 11 4 6 13 8 21 5 7 -3 20 2 29 10 9 9
25 14 36 11 17 -5 18 -3 8 9 -10 12 -9 13 5 8 13 -5 15 -2 10 12 -6 17 -5 17
9 -1 l16 -20 1 20 c0 17 2 18 11 5 8 -11 12 -12 16 -2 2 6 11 12 19 12 9 0 12
5 9 10 -4 6 7 10 24 10 17 0 31 5 31 11 0 6 7 8 16 5 13 -5 15 -2 11 16 -6 22
-5 22 8 4 8 -11 15 -14 15 -8 0 7 7 12 15 12 8 0 15 5 15 11 0 5 -5 7 -12 3
-6 -4 -8 -3 -5 3 3 5 20 8 38 7 23 -2 33 3 36 16 3 12 13 17 28 15 16 -1 22 2
18 11 -3 8 2 14 11 14 9 0 16 5 16 11 0 6 7 8 16 5 8 -3 12 -2 9 4 -6 9 9 15
29 11 5 -1 3 6 -5 15 -13 16 -12 16 8 6 20 -11 21 -10 18 10 -4 16 -2 19 7 10
7 -7 17 -12 22 -12 6 0 4 5 -4 10 -9 6 -10 10 -3 10 7 0 22 10 34 23 12 12 18
16 14 8 -6 -10 -4 -12 4 -7 7 5 10 14 7 21 -3 9 2 12 15 10 11 -2 17 0 15 4
-3 4 7 19 22 32 20 18 22 19 9 3 -9 -11 -17 -24 -17 -29 0 -4 9 4 20 18 11 14
20 30 20 36 0 6 7 8 15 5 18 -7 20 12 3 20 -7 3 -2 3 11 0 16 -4 21 -3 17 5
-4 6 -2 11 3 11 6 0 10 6 8 13 -1 6 7 12 19 11 11 0 21 5 21 12 0 7 -5 10 -11
7 -6 -4 -5 1 3 10 14 18 26 23 17 8 -3 -5 1 -11 9 -14 9 -4 12 -1 9 7 -5 14
20 46 37 46 5 0 9 9 9 19 0 11 5 23 10 26 6 4 8 10 5 15 -3 4 3 7 13 6 9 0 16
5 15 12 -2 6 2 12 8 12 5 0 7 5 4 10 -3 6 0 10 7 10 18 0 60 68 51 83 -4 7 2
5 12 -3 17 -14 18 -13 12 3 -4 11 -1 20 8 23 8 4 15 15 15 26 0 14 5 18 15 14
13 -5 14 -2 4 17 -6 12 -8 19 -4 15 10 -10 28 10 46 50 7 17 18 32 22 32 5 0
5 5 2 10 -3 6 -1 10 5 10 6 0 8 5 5 10 -3 6 1 13 9 16 9 3 16 10 16 16 0 5 -4
6 -10 3 -6 -3 -7 1 -4 9 3 9 10 14 14 11 7 -4 20 16 24 35 1 3 5 11 9 18 5 6
5 16 2 22 -3 6 1 10 9 10 9 0 15 3 15 8 -4 21 2 42 10 38 10 -7 9 13 -2 30 -4
7 0 11 9 10 9 0 18 6 19 14 2 8 7 24 11 34 5 14 4 17 -4 12 -8 -5 -10 -2 -6 8
3 9 9 14 13 12 4 -3 13 0 21 6 12 8 12 9 -2 4 -20 -6 -25 9 -7 19 6 4 8 13 5
21 -3 8 1 14 10 14 14 0 14 3 -2 28 -14 21 -14 24 -2 14 14 -11 17 -10 23 7 3
12 3 25 0 31 -3 5 -1 10 6 10 7 0 9 3 6 7 -4 3 -1 13 6 21 8 11 8 14 0 9 -7
-5 -6 4 3 23 15 29 11 56 -6 45 -5 -3 -11 -1 -14 4 -3 4 4 8 16 7 12 0 23 5
26 13 2 8 0 11 -5 8 -5 -3 -10 0 -10 8 0 8 5 11 10 8 6 -3 8 7 5 25 -2 17 -2
29 2 27 3 -2 12 5 18 16 12 19 11 19 -10 8 -19 -10 -21 -10 -12 2 18 23 26 51
11 43 -9 -6 -9 -4 -1 7 16 20 17 92 1 84 -7 -4 -4 0 5 8 14 11 15 16 5 27 -9
10 -9 11 1 6 7 -5 12 -1 12 9 0 10 -4 13 -12 8 -8 -4 -7 3 3 17 17 27 14 54
-4 43 -9 -5 -9 -3 0 8 7 9 10 49 6 124 -2 61 -5 131 -6 158 -1 26 -4 47 -7 47
-3 0 -7 17 -8 38 -2 20 -9 63 -16 95 -10 41 -10 57 -2 57 7 0 6 3 -2 8 -7 5
-15 20 -17 33 -11 56 -14 69 -19 77 -3 5 -7 20 -10 35 -2 14 -11 41 -19 59 -8
18 -29 69 -47 113 -18 44 -56 121 -83 170 -201 362 -467 614 -841 795 -213
103 -378 152 -621 186 -49 7 -402 13 -408 7z m2063 -2407 c0 -2 -8 -10 -17
-17 -16 -13 -17 -12 -4 4 13 16 21 21 21 13z m-6044 -96 c0 -12 -4 -16 -9 -11
-5 5 -6 14 -3 20 10 15 12 14 12 -9z m59 -57 c-2 -10 -4 -21 -4 -25 -1 -5 -6
-8 -12 -8 -6 0 -7 5 -2 13 4 6 8 15 9 20 3 14 4 17 8 17 2 0 3 -8 1 -17z m35
-16 c0 -2 -10 -12 -22 -23 l-23 -19 19 23 c18 21 26 27 26 19z m1367 -19 c2
-17 0 -19 -7 -8 -5 8 -6 18 -4 22 8 12 10 10 11 -14z m-1342 -8 c3 -5 1 -10
-4 -10 -6 0 -11 5 -11 10 0 6 2 10 4 10 3 0 8 -4 11 -10z m1281 -55 c-1 -8 -8
-21 -16 -28 -10 -10 -11 -9 -4 3 5 8 9 18 10 23 3 14 4 17 8 17 2 0 3 -7 2
-15z m-1222 -20 c-4 -8 -11 -12 -16 -9 -6 4 -5 10 3 15 19 12 19 11 13 -6z
m20 -31 c3 -8 2 -12 -4 -9 -6 3 -10 10 -10 16 0 14 7 11 14 -7z m1146 12 c0
-2 -7 -7 -16 -10 -8 -3 -12 -2 -9 4 6 10 25 14 25 6z m-60 -10 c0 -2 -8 -10
-17 -17 -16 -13 -17 -12 -4 4 13 16 21 21 21 13z m-1020 -10 c0 -3 -4 -8 -10
-11 -5 -3 -10 -1 -10 4 0 6 5 11 10 11 6 0 10 -2 10 -4z m1035 -34 c-3 -3 -11
0 -18 7 -9 10 -8 11 6 5 10 -3 15 -9 12 -12z m-1041 -22 c-6 -6 -10 -3 -10 10
0 13 4 16 10 10 7 -7 7 -13 0 -20z m37 3 c13 -16 12 -17 -3 -4 -10 7 -18 15
-18 17 0 8 8 3 21 -13z m36 -5 c-3 -8 -6 -5 -6 6 -1 11 2 17 5 13 3 -3 4 -12
1 -19z m5571 -13 c-3 -3 -9 2 -12 12 -6 14 -5 15 5 6 7 -7 10 -15 7 -18z
m-4838 -49 c0 -2 -7 -7 -16 -10 -8 -3 -12 -2 -9 4 6 10 25 14 25 6z m-625 -36
c3 -5 1 -10 -4 -10 -6 0 -11 5 -11 10 0 6 2 10 4 10 3 0 8 -4 11 -10z m445
-44 c0 -3 -4 -8 -10 -11 -5 -3 -10 -1 -10 4 0 6 5 11 10 11 6 0 10 -2 10 -4z
m4821 -203 c13 -16 12 -17 -3 -4 -10 7 -18 15 -18 17 0 8 8 3 21 -13z m-601
-543 c0 -5 -5 -10 -11 -10 -5 0 -7 5 -4 10 3 6 8 10 11 10 2 0 4 -4 4 -10z
m-83 -55 c0 -8 -4 -15 -9 -15 -10 0 -11 14 -1 23 9 10 10 9 10 -8z m-42 -5 c3
-5 1 -10 -4 -10 -6 0 -11 5 -11 10 0 6 2 10 4 10 3 0 8 -4 11 -10z m-15 -56
c0 -8 -19 -13 -24 -6 -3 5 1 9 9 9 8 0 15 -2 15 -3z m-80 -19 c0 -8 -4 -15 -8
-15 -5 0 -9 7 -9 15 0 8 4 15 9 15 4 0 8 -7 8 -15z m-163 -40 c0 -8 -4 -15 -9
-15 -10 0 -11 14 -1 23 9 10 10 9 10 -8z m-1202 -13 c-3 -3 -11 0 -18 7 -9 10
-8 11 6 5 10 -3 15 -9 12 -12z m1102 -27 c0 -8 -4 -15 -9 -15 -10 0 -11 14 -1
23 9 10 10 9 10 -8z m93 -5 c-8 -5 -19 -10 -25 -10 -5 0 -3 5 5 10 8 5 20 10
25 10 6 0 3 -5 -5 -10z m-213 -25 c0 -8 -4 -12 -9 -9 -5 3 -6 10 -3 15 9 13
12 11 12 -6z m-633 -13 c3 -5 -1 -9 -9 -9 -8 0 -15 4 -15 9 0 4 4 8 9 8 6 0
12 -4 15 -8z m-88 -24 c4 -7 4 -10 -1 -6 -4 4 -15 2 -24 -5 -14 -11 -14 -10
-2 6 16 20 18 21 27 5z m318 4 c3 -5 -1 -9 -9 -9 -8 0 -12 4 -9 9 3 4 7 8 9 8
2 0 6 -4 9 -8z m201 -2 c3 -5 1 -10 -4 -10 -6 0 -11 5 -11 10 0 6 2 10 4 10 3
0 8 -4 11 -10z m-235 -14 c0 -3 -4 -8 -10 -11 -5 -3 -10 -1 -10 4 0 6 5 11 10
11 6 0 10 -2 10 -4z m117 -31 c0 -8 -4 -12 -9 -9 -5 3 -6 10 -3 15 9 13 12 11
12 -6z"/>
<path d="M1913 5705 c0 -8 4 -12 9 -9 5 3 6 10 3 15 -9 13 -12 11 -12 -6z"/>
<path d="M5755 5613 c-57 -3 -184 -17 -250 -28 -130 -23 -341 -101 -457 -171
-168 -100 -374 -280 -445 -387 -28 -42 -30 -52 -20 -70 7 -12 15 -24 18 -27 3
-3 29 -40 58 -82 30 -43 60 -78 67 -78 8 0 13 4 11 9 -1 5 10 23 26 40 15 17
25 31 22 31 -3 0 3 8 13 18 9 10 30 35 46 55 15 20 33 34 39 30 6 -3 7 -1 3 5
-4 7 -2 12 4 12 7 0 10 7 7 14 -4 10 -1 13 8 9 8 -3 18 2 21 11 3 9 10 14 14
11 5 -3 11 4 15 15 3 11 12 19 18 17 7 -1 11 6 11 15 -1 10 3 15 8 12 5 -3 16
2 24 12 9 11 12 13 8 5 -5 -9 -3 -12 4 -7 7 4 12 13 12 21 0 8 5 17 12 21 6 4
8 3 4 -4 -3 -6 -2 -13 4 -17 5 -3 10 1 10 10 0 10 5 13 12 9 8 -5 9 -2 5 10
-4 11 -3 15 4 11 6 -4 17 1 25 11 9 11 13 14 10 7 -4 -7 1 -9 14 -6 16 4 18 9
9 19 -8 10 -5 12 15 8 18 -3 28 1 32 11 3 8 10 13 15 10 4 -3 20 8 35 24 15
17 30 28 34 26 4 -3 13 2 20 10 7 8 16 12 22 9 5 -3 16 0 25 8 9 7 17 11 17 9
1 -2 21 3 46 10 59 17 63 17 78 6 9 -7 11 -5 5 9 -6 17 -5 18 11 5 9 -8 16
-10 15 -5 -4 21 2 28 11 14 6 -10 10 -11 10 -2 0 6 5 12 11 12 5 0 7 -4 4 -10
-3 -5 -1 -10 4 -10 6 0 11 6 11 13 0 6 10 13 23 14 12 1 31 4 42 6 11 3 26 -1
34 -7 11 -8 13 -8 7 2 -5 8 0 12 13 12 12 0 21 -6 21 -12 1 -9 4 -8 9 2 7 11
26 15 73 14 107 -3 178 -9 178 -16 0 -3 8 -5 18 -3 9 1 28 -4 41 -12 16 -10
21 -11 16 -2 -6 9 -2 10 16 5 13 -4 35 -10 49 -13 14 -3 28 -11 32 -17 6 -8 8
-8 8 1 0 8 7 8 30 0 17 -6 30 -14 30 -17 0 -3 12 -7 28 -8 15 -1 29 -7 30 -12
2 -6 7 -8 12 -5 5 3 16 -2 24 -11 9 -8 16 -12 16 -8 0 3 7 1 15 -6 8 -7 15 -9
15 -4 0 5 4 4 8 -1 4 -6 21 -17 37 -25 41 -20 87 -51 106 -72 9 -10 18 -16 21
-13 6 7 139 -123 178 -175 19 -25 37 -47 40 -50 12 -11 90 -140 90 -150 0 -5
5 -10 11 -10 5 0 8 -4 4 -9 -3 -5 2 -17 11 -25 8 -9 13 -16 9 -16 -3 0 1 -12
9 -27 20 -38 36 -91 36 -120 0 -13 3 -22 8 -19 4 2 8 -8 9 -22 1 -40 10 -89
18 -101 3 -6 0 -11 -7 -11 -8 0 -9 -3 -3 -8 12 -8 14 -35 14 -162 1 -241 -47
-438 -155 -639 -26 -47 -50 -88 -53 -91 -3 -3 -11 -14 -18 -25 -6 -11 -16 -19
-23 -17 -6 1 -9 -2 -5 -8 9 -14 -14 -42 -28 -33 -6 3 -7 1 -3 -5 8 -14 -24
-53 -37 -45 -6 3 -7 2 -4 -4 6 -9 -38 -55 -118 -123 -22 -19 -39 -37 -38 -41
1 -4 -7 -5 -17 -2 -11 3 -20 0 -20 -6 0 -12 -188 -106 -235 -117 -16 -4 -36
-11 -42 -17 -7 -5 -13 -7 -13 -4 0 4 -18 0 -40 -8 -22 -8 -66 -17 -97 -21 -32
-3 -61 -8 -66 -11 -11 -7 -286 -6 -327 1 -35 6 -68 13 -105 21 -163 35 -362
133 -500 248 -141 118 -222 212 -499 582 -386 516 -650 862 -763 1000 -212
260 -449 466 -658 572 -104 53 -234 105 -246 97 -5 -3 -9 -2 -9 3 0 13 -140
52 -206 57 -16 1 -35 6 -42 10 -6 4 -80 8 -164 10 -171 4 -291 -12 -444 -59
-92 -28 -201 -74 -244 -103 -14 -9 -27 -17 -30 -17 -9 0 -145 -94 -184 -127
-113 -95 -236 -233 -282 -318 -10 -19 -22 -37 -25 -40 -13 -12 -98 -190 -118
-250 -13 -36 -26 -72 -29 -80 -3 -8 -7 -26 -9 -40 -2 -13 -8 -29 -13 -35 -5
-6 -9 -20 -9 -30 0 -20 -5 -47 -16 -95 -3 -14 -7 -63 -10 -110 -2 -47 -5 -86
-6 -87 -5 -9 -2 -51 5 -61 4 -7 2 -12 -5 -12 -8 0 -8 -4 2 -16 10 -13 10 -17
-2 -25 -8 -5 -9 -9 -4 -9 6 0 11 -17 11 -38 3 -72 8 -112 15 -112 4 0 6 -8 4
-17 -1 -10 4 -29 12 -42 8 -13 10 -20 4 -17 -16 10 -14 -1 6 -31 14 -21 15
-25 3 -18 -13 8 -13 7 -1 -8 7 -9 10 -17 5 -17 -4 0 -3 -5 4 -12 7 -7 12 -20
12 -31 0 -10 7 -26 16 -34 13 -13 13 -17 2 -24 -10 -7 -10 -9 1 -9 8 0 11 -3
8 -6 -3 -4 -1 -16 5 -28 7 -11 11 -24 10 -28 -1 -5 2 -8 7 -8 8 0 22 -39 21
-55 0 -3 6 -13 15 -21 8 -9 15 -22 15 -30 0 -8 5 -14 11 -14 5 0 8 -4 4 -9 -3
-5 2 -16 10 -24 8 -9 15 -20 15 -26 0 -6 5 -11 10 -11 6 0 10 -6 10 -13 0 -7
9 -23 20 -35 12 -12 18 -22 15 -22 -3 0 3 -8 13 -18 35 -38 50 -60 45 -66 -4
-3 1 -6 10 -6 10 0 17 -5 17 -11 0 -16 210 -217 210 -201 0 4 6 0 13 -8 7 -9
30 -27 52 -40 22 -13 42 -27 45 -30 3 -3 22 -14 43 -24 20 -9 35 -21 32 -26
-3 -6 0 -7 8 -4 8 3 19 -2 26 -10 7 -8 20 -12 28 -9 12 5 15 2 10 -9 -4 -11
-1 -14 12 -11 10 2 24 -2 32 -10 8 -7 20 -12 27 -9 6 2 12 -1 12 -7 0 -6 3
-10 8 -9 12 4 101 -26 97 -32 -2 -3 8 -6 23 -7 49 -1 53 -3 46 -15 -6 -10 -4
-10 8 0 12 9 18 10 23 2 4 -7 16 -10 26 -7 11 3 19 2 19 -1 0 -4 12 -8 28 -8
15 -1 41 -4 57 -8 62 -13 316 -7 367 10 15 5 19 3 13 -7 -6 -11 -5 -12 6 -1 7
6 25 12 39 12 14 0 32 6 39 13 11 10 12 9 6 -3 -7 -12 -6 -13 6 -3 12 10 18
10 28 0 10 -9 12 -9 9 1 -3 14 108 56 123 46 4 -2 9 2 12 8 3 10 10 10 28 -1
21 -13 23 -13 11 1 -10 13 -9 17 5 23 10 5 20 9 23 9 15 3 126 51 130 56 3 3
22 14 42 23 20 10 40 22 43 27 4 6 10 8 15 5 4 -3 10 2 14 10 3 8 12 15 21 15
8 0 15 4 15 8 0 5 8 13 19 18 26 13 75 51 128 102 25 23 49 42 53 42 5 0 12 9
15 20 4 11 10 18 14 16 4 -3 15 8 25 25 9 16 22 27 27 23 5 -3 8 -1 7 5 -2 5
13 27 32 47 19 21 28 34 20 29 -13 -8 -13 -6 -1 8 7 9 17 15 21 12 5 -3 12 0
16 6 4 8 3 9 -4 5 -7 -4 -12 -1 -12 8 0 9 6 16 13 16 8 0 7 4 -3 10 -13 8 -13
10 1 10 9 0 20 7 23 16 3 8 2 12 -4 9 -6 -3 -10 1 -10 9 0 9 -4 16 -10 16 -5
0 -10 7 -10 16 0 9 -5 12 -12 8 -8 -5 -8 -2 1 10 8 9 10 16 5 15 -21 -4 -34 2
-34 15 0 15 -27 30 -50 27 -13 -2 -13 -1 0 8 9 6 18 6 26 0 9 -8 11 -5 7 10
-3 11 -8 20 -12 19 -26 -3 -33 3 -21 18 11 12 11 15 -1 12 -8 -2 -13 3 -11 10
1 8 -2 11 -8 7 -5 -3 -10 2 -11 12 0 14 -3 12 -12 -7 -6 -14 -19 -33 -29 -44
-9 -10 -24 -34 -33 -52 -44 -92 -182 -239 -336 -357 -21 -16 -202 -106 -254
-127 -214 -85 -538 -92 -760 -16 -238 81 -421 214 -561 409 -32 44 -60 74 -66
71 -7 -4 -8 -2 -4 4 9 15 -22 75 -34 67 -6 -3 -7 0 -4 8 3 8 -6 38 -19 68 -34
74 -43 98 -46 120 0 5 -4 8 -8 6 -5 -3 -9 5 -9 16 -3 53 -9 97 -14 97 -3 0 -6
8 -7 18 -1 9 -5 33 -8 52 -12 70 -15 331 -4 324 7 -4 7 1 0 15 -7 11 -8 21 -3
21 4 0 7 12 7 28 -1 15 2 37 6 48 5 13 3 27 -4 34 -9 10 -9 11 1 6 6 -4 12 -4
13 1 1 18 9 60 16 83 3 14 6 28 5 33 -1 4 2 7 6 7 4 0 8 8 9 18 1 9 7 31 14
47 7 17 13 32 13 35 4 17 32 70 37 70 7 0 22 40 20 53 -1 4 4 7 9 7 6 0 14 9
18 19 11 31 116 161 129 161 7 0 12 3 11 8 -2 4 12 22 30 41 17 19 32 31 32
27 0 -3 8 2 19 12 49 46 84 71 92 66 5 -3 9 -1 9 5 0 11 111 77 123 73 4 -1 7
3 7 8 0 6 8 10 19 10 10 0 24 7 31 15 7 8 17 12 22 9 5 -3 19 2 30 13 14 12
18 13 13 3 -8 -13 -7 -13 8 -1 10 8 20 11 23 8 4 -3 13 1 22 9 12 13 16 13 23
2 7 -11 9 -11 9 1 0 8 7 11 20 8 11 -3 20 -1 20 3 0 5 8 7 18 5 9 -1 22 1 27
5 6 5 25 7 43 6 18 -1 36 2 38 6 3 5 12 4 20 -3 12 -10 13 -9 8 4 -6 16 18 19
32 4 4 -4 14 -2 21 5 11 9 16 9 23 -1 6 -11 9 -11 13 0 4 12 7 11 16 -1 7 -10
11 -11 11 -2 0 6 5 12 11 12 5 0 7 -6 3 -12 -5 -8 -1 -8 10 1 14 12 19 12 26
2 6 -11 9 -11 13 0 5 12 7 11 16 -1 5 -8 7 -19 4 -25 -4 -5 -2 -6 3 -2 5 5 9
14 9 20 0 19 54 12 71 -8 8 -11 13 -14 9 -7 -4 8 3 12 22 12 22 0 25 -2 13
-10 -9 -6 -10 -10 -3 -10 6 0 14 4 18 10 8 13 35 1 35 -16 0 -8 4 -14 10 -14
5 0 6 7 3 17 -5 12 -3 14 8 7 8 -5 21 -9 29 -10 27 -2 50 -16 43 -27 -3 -5 -1
-7 5 -3 6 3 18 -1 26 -10 9 -8 16 -11 16 -5 0 6 11 10 24 9 14 -1 22 -6 20
-10 -3 -4 2 -8 11 -8 9 0 13 -4 10 -10 -6 -9 8 -14 28 -11 4 0 7 -3 7 -8 0 -8
55 -35 75 -36 6 -1 9 -6 8 -13 -2 -6 4 -9 12 -6 8 3 22 -1 31 -10 8 -9 20 -14
25 -11 5 4 9 -2 9 -12 0 -15 2 -16 10 -3 8 13 10 12 10 -4 0 -13 5 -17 19 -13
15 3 18 1 14 -11 -5 -12 -1 -14 15 -10 15 4 19 2 15 -8 -5 -13 14 -19 40 -15
5 1 6 -2 3 -7 -3 -5 4 -14 14 -22 10 -8 16 -18 13 -23 -3 -6 -1 -7 4 -4 6 4
27 -9 46 -28 19 -19 41 -35 48 -35 7 0 10 -2 7 -5 -3 -3 40 -52 96 -110 56
-57 109 -114 119 -127 10 -13 28 -36 40 -52 12 -16 37 -45 54 -65 18 -20 33
-40 33 -44 0 -5 7 -16 16 -24 9 -9 34 -41 57 -72 23 -31 46 -59 52 -63 5 -4 7
-8 3 -8 -4 0 3 -11 15 -24 12 -13 37 -44 56 -70 18 -25 37 -43 42 -40 5 3 9 2
8 -3 -3 -18 2 -31 19 -51 25 -29 46 -56 57 -74 49 -75 189 -246 198 -241 6 3
7 1 3 -5 -4 -7 5 -28 20 -47 23 -30 29 -33 43 -23 14 12 14 11 3 -4 -12 -15
-8 -25 35 -79 26 -33 55 -71 63 -83 8 -13 29 -40 45 -61 115 -146 171 -216
203 -253 50 -58 248 -252 257 -252 2 0 38 -24 80 -54 41 -30 84 -58 95 -61 11
-4 18 -10 16 -14 -3 -4 0 -8 7 -8 10 0 120 -48 169 -74 10 -5 25 -9 33 -9 8 0
15 -4 15 -8 0 -4 10 -8 22 -9 11 -1 24 -6 27 -10 3 -4 12 -8 19 -9 37 -3 43
-5 39 -11 -3 -5 7 -9 21 -10 31 -2 76 -9 80 -13 4 -5 22 -7 53 -9 21 -1 28 -5
23 -13 -6 -10 -4 -10 8 0 10 8 18 9 22 3 4 -6 13 -8 20 -5 8 3 17 1 21 -5 4
-8 12 -8 25 -1 10 6 21 6 24 2 3 -5 20 -7 38 -6 18 1 36 -3 40 -9 6 -9 8 -9 8
1 0 6 5 12 11 12 5 0 7 -5 3 -12 -5 -7 -3 -8 7 -2 20 12 83 13 91 0 5 -8 8 -7
8 2 0 6 7 12 15 12 8 0 15 -6 15 -12 0 -9 3 -9 8 -3 7 10 140 37 192 39 14 1
27 4 30 8 3 4 20 8 37 10 17 1 29 6 27 10 -4 7 45 13 69 9 5 -1 5 4 1 10 -5 9
-1 10 14 7 12 -4 20 -2 16 3 -3 5 0 10 5 10 16 2 23 4 54 17 16 7 33 9 39 6 6
-4 8 -3 5 3 -7 11 60 46 73 38 5 -3 12 0 16 6 5 8 3 9 -6 4 -8 -5 -11 -4 -7 2
3 5 24 18 46 29 23 10 41 22 41 27 0 4 7 7 15 7 8 0 15 5 15 12 0 6 3 8 7 5 3
-4 12 2 20 13 8 11 19 20 25 20 5 0 19 11 30 26 11 14 22 23 24 21 6 -6 74 63
74 74 0 5 7 9 15 9 8 0 15 3 15 8 0 4 17 26 39 48 21 23 41 49 44 58 4 10 12
14 18 10 7 -4 9 -3 5 4 -3 6 0 16 7 24 24 24 58 78 50 78 -4 0 3 7 15 16 12 8
20 19 18 23 -3 4 4 18 15 29 11 12 15 22 9 22 -6 0 -2 10 10 22 11 12 20 28
20 35 0 7 5 13 11 13 8 0 7 6 -2 18 -7 9 -9 14 -5 10 12 -10 39 29 31 42 -3 6
-1 10 5 10 7 0 9 7 6 16 -4 10 -2 13 6 8 7 -5 9 1 6 19 -3 17 -1 24 7 21 6 -3
12 1 12 8 1 21 10 61 21 88 5 14 8 35 7 47 -1 12 2 20 7 17 4 -3 8 11 8 30 0
19 5 38 10 41 6 4 9 9 6 13 -2 4 0 31 3 60 5 34 4 52 -3 52 -6 0 -3 5 7 11 10
6 14 15 10 22 -12 20 -12 37 0 37 8 0 7 3 -2 9 -9 6 -10 11 -2 15 7 4 8 14 3
24 -10 20 -10 33 1 49 4 6 0 19 -9 27 -9 9 -11 16 -4 16 6 0 8 5 5 10 -3 6 0
10 7 10 10 0 10 2 -1 9 -9 6 -12 20 -9 40 3 18 1 34 -3 37 -4 2 -6 18 -4 34 2
17 1 30 -3 30 -5 0 -8 10 -9 23 -2 54 -9 97 -15 97 -3 0 -9 18 -13 40 -4 22
-12 46 -18 53 -7 6 -12 23 -12 37 1 14 -5 31 -12 38 -7 7 -13 24 -13 38 0 13
-4 24 -10 24 -5 0 -10 7 -10 15 0 18 -91 171 -158 265 -109 153 -320 324 -502
408 -79 36 -205 82 -240 87 -8 1 -22 5 -30 8 -60 22 -277 44 -385 40z m-2965
-323 c0 -5 -7 -7 -15 -4 -8 4 -15 8 -15 10 0 2 7 4 15 4 8 0 15 -4 15 -10z
m145 -70 c3 -6 -1 -7 -9 -4 -18 7 -21 14 -7 14 6 0 13 -4 16 -10z m35 -4 c0
-3 -4 -8 -10 -11 -5 -3 -10 -1 -10 4 0 6 5 11 10 11 6 0 10 -2 10 -4z m505
-1586 c3 -5 1 -10 -4 -10 -6 0 -11 5 -11 10 0 6 2 10 4 10 3 0 8 -4 11 -10z
m-24 -43 c-10 -9 -11 -8 -5 6 3 10 9 15 12 12 3 -3 0 -11 -7 -18z m123 -115
c3 -5 -1 -9 -9 -9 -8 0 -15 4 -15 9 0 4 4 8 9 8 6 0 12 -4 15 -8z"/>
<path d="M2500 5336 c0 -2 7 -7 16 -10 8 -3 12 -2 9 4 -6 10 -25 14 -25 6z"/>
<path d="M2701 5293 c6 -7 17 -13 23 -12 7 0 6 2 -2 6 -6 2 -10 8 -8 12 3 4
-1 8 -9 8 -11 0 -12 -4 -4 -14z"/>
<path d="M5385 5280 c-3 -6 1 -7 9 -4 18 7 21 14 7 14 -6 0 -13 -4 -16 -10z"/>
<path d="M5302 5257 c-8 -10 -6 -13 9 -14 19 -2 26 11 10 21 -5 3 -14 0 -19
-7z"/>
<path d="M5260 5235 c-11 -13 -10 -14 4 -9 9 3 16 10 16 15 0 13 -6 11 -20 -6z"/>
</g>
</svg>
