<?xml version="1.0" encoding="UTF-8"?>
<svg id="Layer_1" xmlns="http://www.w3.org/2000/svg" viewBox="0 0 1036.64 346.52">
  <defs>
    <style>
      .cls-1 {
        fill: #010101;
      }

      .cls-2 {
        font-family: Tahoma-Bold, Tahoma;
        font-size: 81px;
        font-weight: 700;
      }

      .cls-3 {
        fill: #fff;
      }

      .cls-4 {
        fill: #fdfdfd;
      }
    </style>
  </defs>
  <g>
    <path d="M954.09,0H82.6C79.42,0,76.28,0,73.11.02c-2.65.02-5.28.07-7.96.11-5.82.07-11.62.58-17.36,1.53-5.73.97-11.28,2.8-16.47,5.43-5.18,2.65-9.91,6.1-14.02,10.21-4.13,4.1-7.58,8.84-10.21,14.04-2.63,5.19-4.46,10.75-5.41,16.49-.96,5.73-1.48,11.53-1.55,17.34-.08,2.66-.09,5.32-.13,7.98v200.24c.04,2.69.05,5.3.13,7.99.07,5.81.59,11.61,1.55,17.34.95,5.74,2.78,11.31,5.41,16.5,2.62,5.18,6.07,9.9,10.21,13.98,4.1,4.13,8.83,7.58,14.02,10.21,5.18,2.64,10.74,4.48,16.47,5.46,5.74.94,11.54,1.45,17.36,1.53,2.68.06,5.31.09,7.96.09,3.17.02,6.31.02,9.48.02h871.49c3.11,0,6.28,0,9.39-.02,2.64,0,5.35-.03,7.99-.09,5.81-.07,11.6-.58,17.33-1.53,5.75-.99,11.32-2.83,16.53-5.46,5.19-2.63,9.92-6.08,14.01-10.21,4.12-4.1,7.58-8.81,10.24-13.98,2.62-5.19,4.42-10.76,5.36-16.5.97-5.73,1.5-11.53,1.61-17.34.03-2.69.03-5.3.03-7.99.07-3.15.07-6.28.07-9.48V82.61c0-3.17,0-6.32-.07-9.46,0-2.66,0-5.32-.03-7.98-.1-5.81-.64-11.61-1.61-17.34-.94-5.74-2.75-11.3-5.36-16.49-5.35-10.42-13.83-18.9-24.25-24.25-5.21-2.62-10.78-4.45-16.53-5.43-5.73-.95-11.52-1.47-17.33-1.53-2.64-.04-5.35-.09-7.99-.11-3.11-.02-6.28-.02-9.39-.02h0Z"/>
    <path class="cls-3" d="M73.16,338.94c-2.64,0-5.22-.03-7.83-.09-5.42-.07-10.84-.54-16.19-1.41-4.99-.86-9.83-2.46-14.35-4.75-4.48-2.27-8.57-5.24-12.1-8.81-3.59-3.52-6.57-7.61-8.84-12.1-2.29-4.52-3.88-9.36-4.7-14.36-.89-5.37-1.37-10.8-1.44-16.24-.05-1.83-.13-7.91-.13-7.91V73.15s.08-5.99.13-7.75c.07-5.43.55-10.86,1.43-16.22.83-5.01,2.41-9.87,4.71-14.4,2.26-4.48,5.23-8.57,8.79-12.11,3.56-3.57,7.66-6.56,12.15-8.86,4.51-2.28,9.34-3.87,14.32-4.71,5.37-.88,10.8-1.35,16.25-1.42l7.82-.11h890.27l7.91.11c5.39.06,10.78.53,16.1,1.41,5.03.85,9.91,2.45,14.47,4.75,8.99,4.63,16.31,11.96,20.92,20.96,2.26,4.5,3.82,9.32,4.64,14.28.9,5.41,1.4,10.87,1.51,16.35.03,2.45.03,5.09.03,7.71.07,3.25.07,6.34.07,9.46v181.3c0,3.15,0,6.22-.07,9.31,0,2.82,0,5.4-.03,8.05-.1,5.38-.6,10.75-1.48,16.06-.81,5.03-2.39,9.91-4.68,14.47-2.28,4.44-5.25,8.49-8.8,12-3.54,3.58-7.63,6.58-12.12,8.86-4.55,2.3-9.42,3.91-14.45,4.76-5.35.87-10.77,1.35-16.19,1.41-2.54.06-5.19.09-7.77.09l-9.39.02-880.93-.02Z"/>
  </g>
  <text class="cls-2" transform="translate(439.44 147.32)"><tspan x="0" y="0">Available now </tspan><tspan x="0" y="97.2">on the web!</tspan></text>
  <g>
    <path class="cls-4" d="M140.7,269.95c-30.06,0-60.12,0-90.17.02-.72,0-.89-.16-.89-.89.02-64.08.02-128.15,0-192.23,0-.72.16-.89.89-.89,118.81.02,237.62.02,356.44,0,.72,0,.89.16.89.89-.02,30.94-.02,61.89-.02,92.83-.28-.07-.18-.3-.19-.48-.22-6.58-1.11-13.06-2.72-19.44-5.55-21.95-17.29-39.89-35.24-53.65-16.36-12.53-34.95-19.04-55.56-19.74-11.36-.39-22.43,1.25-33.26,4.72-17.95,5.75-32.38,16.67-45,30.29-.28.31-.31.49,0,.77.64.59,1.26,1.2,1.87,1.81,3.83,3.82,7.65,7.65,11.51,11.51,2.55-2.56,5.05-5.11,7.6-7.62,5.87-5.77,12.46-10.55,19.85-14.17,15.14-7.42,31.07-9.7,47.68-6.84,16.71,2.87,31.02,10.47,42.58,22.82,17.62,18.83,24.31,41.2,20.18,66.63-2.73,16.83-10.56,31.17-23.03,42.75-18.25,16.95-39.92,23.63-64.58,20.24-14.36-1.98-27.04-7.9-38.15-17.19-4.23-3.54-8-7.56-11.92-11.42-11.45-11.27-22.85-22.59-34.27-33.89-6.45-6.39-12.91-12.77-19.36-19.16-7.25-7.18-14.52-14.35-21.75-21.55-12.11-12.07-30.6-14.85-45.67-6.84-14.96,7.95-23.02,24.93-19.74,41.56,3.24,16.38,16.29,28.66,33,30.85,10.61,1.39,20.22-1.29,28.72-7.78,3.67-2.81,6.64-6.37,9.99-9.52.56-.53.44-.77-.03-1.24-4.19-4.14-8.38-8.29-12.52-12.48-.55-.56-.8-.42-1.26.05-2.14,2.19-4.28,4.37-6.49,6.49-4.53,4.35-9.98,6.17-16.18,5.27-10.67-1.56-17.75-11.09-16.35-21.79,1.64-12.53,15.28-20.1,26.86-14.95,3.08,1.37,5.45,3.59,7.79,5.9,6.54,6.48,13.09,12.96,19.64,19.43,8.06,7.97,16.12,15.94,24.17,23.92,9.31,9.22,18.61,18.46,27.93,27.67,3.89,3.85,7.7,7.79,11.74,11.47,16.32,14.89,35.53,23.26,57.56,25.15,9.59.82,19.1.2,28.49-1.89,19.86-4.41,36.76-14.05,50.51-29.03,15.2-16.57,23.56-36.17,25.28-58.59.08-1.09-.06-2.21.34-3.26,0,30.88,0,61.76.02,92.64,0,.72-.16.89-.89.89-84.95-.02-169.91-.02-254.86-.02.05-.22.23-.18.38-.19,5.44-.27,10.82-1.06,16.11-2.32,21.1-5.02,38.57-15.91,52.53-32.49.45-.53.43-.79-.06-1.28-4.09-4.02-8.15-8.06-12.19-12.13-.53-.53-.77-.47-1.26.02-3.5,3.46-6.81,7.13-10.58,10.31-16.87,14.27-36.37,20.3-58.32,18.31-9.7-.88-18.9-3.65-27.53-8.18-15.4-8.08-26.98-19.94-34.43-35.64-7.5-15.8-9.43-32.39-5.61-49.44,5.29-23.6,18.9-41.08,40.26-52.31,15.56-8.18,32.18-10.35,49.46-7.19,15.22,2.78,28.36,9.69,39.49,20.4,5.77,5.56,11.42,11.26,17.12,16.89,6.55,6.48,13.09,12.96,19.64,19.43,6.41,6.34,12.82,12.68,19.23,19.02,9.06,8.97,18.07,17.99,27.19,26.91,9.74,9.53,21.43,13.2,34.83,10.76,20.87-3.8,35.33-24.34,30.4-46.44-3.67-16.45-17.04-28.18-33.94-29.9-10.06-1.02-19.19,1.62-27.26,7.71-3.92,2.96-7.11,6.72-10.64,10.1-.49.47-.07.65.17.89,4.21,4.22,8.43,8.42,12.63,12.65.44.44.67.47,1.12,0,2.16-2.21,4.33-4.41,6.56-6.56,4.7-4.55,10.34-6.45,16.79-5.39,10.42,1.71,17.39,11.12,15.93,21.64-1.07,7.67-5.45,13-12.74,15.54-7.29,2.53-14.07,1.09-19.65-4.28-9.23-8.89-18.26-17.99-27.37-27-7.99-7.9-15.98-15.81-23.97-23.71-10.48-10.38-20.96-20.75-31.43-31.14-4.56-4.52-9.46-8.64-14.84-12.14-21.68-14.07-45.31-18.99-70.76-14.51-21.19,3.74-39.17,13.65-53.7,29.47-17.6,19.17-26.06,41.92-25.64,67.95.12,7.14,1.05,14.17,2.81,21.08,4.79,18.78,14.27,34.8,28.62,47.86,16.16,14.71,35.19,22.96,56.96,24.94.77.07,1.58-.06,2.3.34ZM309.25,240.6c5.75-.03,9.67-.33,13.54-1.04,14.53-2.65,27-9.2,37.18-19.91,12.33-12.97,18.5-28.51,18.77-46.38.08-5.1-.47-10.15-1.62-15.12-4.13-17.72-13.73-31.73-28.9-41.74-14.48-9.56-30.46-12.85-47.61-10.3-11.18,1.66-21.26,6.02-30.31,12.78-5.11,3.81-9.35,8.55-13.9,12.97-.47.45-.12.63.14.9,4.22,4.2,8.45,8.4,12.65,12.63.48.49.71.47,1.17,0,2.11-2.17,4.25-4.32,6.42-6.43,12.34-11.98,27.04-16.52,43.9-13.29,26.23,5.02,43.3,31.3,37.61,57.47-4.83,22.2-24.91,38.73-48.55,38.04-9.75-.29-18.6-3.25-26.59-8.82-4.12-2.88-7.5-6.57-11.06-10.05-6.51-6.38-12.96-12.81-19.44-19.22-6.52-6.45-13.05-12.91-19.57-19.36-6.45-6.39-12.91-12.77-19.36-19.16-6.06-6.01-12.11-12.03-18.18-18.03-2.01-1.99-4.04-3.97-6.27-5.73-15.96-12.57-34-17.35-54.04-14.1-15.18,2.47-28.1,9.47-38.39,20.87-14.84,16.42-20.42,35.75-16.82,57.56,2.43,14.68,9.23,27.23,20.12,37.34,15.53,14.43,34,20.37,55.07,17.93,11.4-1.32,21.71-5.55,31.05-12.2,5.52-3.93,10.05-8.92,14.86-13.62.46-.45.12-.64-.15-.9-4.25-4.22-8.5-8.44-12.73-12.69-.45-.45-.66-.36-1.05.03-2.24,2.27-4.46,4.56-6.76,6.76-11.26,10.74-24.67,15.27-40.09,13.4-11.29-1.37-20.96-6.3-28.7-14.63-11.52-12.39-15.52-27.03-12.17-43.58,1.96-9.66,6.73-17.87,13.91-24.62,10.18-9.57,22.33-13.98,36.26-13.17,12.08.7,22.42,5.49,31.05,13.94,6.3,6.18,12.55,12.4,18.82,18.61,6.77,6.7,13.55,13.41,20.32,20.12,6.16,6.09,12.32,12.18,18.47,18.27,8.31,8.22,16.6,16.46,24.93,24.67,13.26,13.07,29.28,19.49,46.01,19.81Z"/>
    <path class="cls-1" d="M140.7,269.95c-.72-.39-1.53-.27-2.3-.34-21.77-1.98-40.8-10.24-56.96-24.94-14.35-13.06-23.83-29.08-28.62-47.86-1.76-6.91-2.7-13.94-2.81-21.08-.43-26.04,8.04-48.78,25.64-67.95,14.53-15.82,32.52-25.74,53.7-29.47,25.45-4.49,49.07.44,70.76,14.51,5.39,3.5,10.28,7.62,14.84,12.14,10.47,10.38,20.95,20.76,31.43,31.14,7.99,7.91,15.97,15.81,23.97,23.71,9.11,9.01,18.15,18.1,27.37,27,5.58,5.37,12.35,6.82,19.65,4.28,7.29-2.53,11.68-7.87,12.74-15.54,1.46-10.52-5.5-19.93-15.93-21.64-6.45-1.06-12.09.84-16.79,5.39-2.22,2.15-4.4,4.35-6.56,6.56-.45.47-.69.43-1.12,0-4.2-4.23-8.42-8.43-12.63-12.65-.25-.25-.67-.42-.17-.89,3.53-3.38,6.72-7.14,10.64-10.1,8.08-6.09,17.2-8.74,27.26-7.71,16.9,1.72,30.27,13.45,33.94,29.9,4.93,22.1-9.53,42.63-30.4,46.44-13.4,2.44-25.09-1.23-34.83-10.76-9.12-8.92-18.13-17.94-27.19-26.91-6.41-6.34-12.82-12.68-19.23-19.02-6.55-6.48-13.09-12.96-19.64-19.43-5.7-5.64-11.35-11.33-17.12-16.89-11.12-10.72-24.26-17.62-39.49-20.4-17.28-3.16-33.9-.98-49.46,7.19-21.36,11.23-34.98,28.71-40.26,52.31-3.82,17.05-1.89,33.64,5.61,49.44,7.46,15.7,19.03,27.56,34.43,35.64,8.64,4.53,17.84,7.3,27.53,8.18,21.96,1.99,41.45-4.03,58.32-18.31,3.77-3.19,7.07-6.85,10.58-10.31.5-.49.74-.55,1.26-.02,4.04,4.07,8.1,8.11,12.19,12.13.5.49.51.75.06,1.28-13.96,16.57-31.43,27.46-52.53,32.49-5.3,1.26-10.67,2.05-16.11,2.32-.16,0-.34-.03-.38.19h-11.4Z"/>
    <path class="cls-1" d="M407.83,176.45c-.4,1.06-.26,2.18-.34,3.26-1.72,22.42-10.07,42.02-25.28,58.59-13.74,14.98-30.65,24.62-50.51,29.03-9.39,2.08-18.9,2.71-28.49,1.89-22.03-1.88-41.24-10.26-57.56-25.15-4.04-3.69-7.85-7.63-11.74-11.47-9.32-9.22-18.62-18.45-27.93-27.67-8.05-7.98-16.11-15.94-24.17-23.92-6.55-6.48-13.09-12.95-19.64-19.43-2.34-2.31-4.71-4.53-7.79-5.9-11.59-5.15-25.23,2.42-26.86,14.95-1.4,10.7,5.68,20.23,16.35,21.79,6.19.9,11.64-.92,16.18-5.27,2.21-2.12,4.35-4.3,6.49-6.49.46-.47.71-.61,1.26-.05,4.15,4.19,8.33,8.34,12.52,12.48.48.47.6.71.03,1.24-3.35,3.15-6.32,6.72-9.99,9.52-8.5,6.49-18.11,9.17-28.72,7.78-16.71-2.19-29.76-14.47-33-30.85-3.29-16.63,4.77-33.61,19.74-41.56,15.07-8.01,33.56-5.23,45.67,6.84,7.23,7.21,14.5,14.37,21.75,21.55,6.45,6.39,12.91,12.77,19.36,19.16,11.42,11.3,22.82,22.62,34.27,33.89,3.92,3.86,7.69,7.89,11.92,11.42,11.11,9.29,23.79,15.21,38.15,17.19,24.66,3.39,46.34-3.29,64.58-20.24,12.47-11.58,20.29-25.92,23.03-42.75,4.13-25.43-2.56-47.79-20.18-66.63-11.55-12.35-25.87-19.94-42.58-22.82-16.61-2.86-32.53-.57-47.68,6.84-7.39,3.62-13.99,8.4-19.85,14.17-2.55,2.51-5.05,5.06-7.6,7.62-3.86-3.86-7.69-7.69-11.51-11.51-.61-.61-1.23-1.23-1.87-1.81-.31-.29-.29-.47,0-.77,12.63-13.62,27.06-24.55,45-30.29,10.83-3.47,21.9-5.11,33.26-4.72,20.6.71,39.2,7.21,55.56,19.74,17.96,13.76,29.7,31.7,35.24,53.65,1.61,6.38,2.51,12.86,2.72,19.44,0,.18-.09.4.19.48v1.55c-.19,1.09-.13,2.19,0,3.28v1.93Z"/>
    <path class="cls-4" d="M407.83,174.52c-.13-1.09-.19-2.19,0-3.28v3.28Z"/>
    <path class="cls-1" d="M309.25,240.6c-16.73-.32-32.75-6.74-46.01-19.81-8.32-8.21-16.62-16.44-24.93-24.67-6.16-6.09-12.32-12.18-18.47-18.27-6.78-6.7-13.55-13.41-20.32-20.12-6.27-6.21-12.52-12.43-18.82-18.61-8.63-8.46-18.97-13.24-31.05-13.94-13.94-.81-26.08,3.61-36.26,13.17-7.18,6.74-11.95,14.96-13.91,24.62-3.35,16.55.64,31.19,12.17,43.58,7.75,8.33,17.41,13.26,28.7,14.63,15.42,1.87,28.83-2.66,40.09-13.4,2.31-2.2,4.53-4.49,6.76-6.76.39-.4.6-.48,1.05-.03,4.23,4.25,8.48,8.46,12.73,12.69.26.26.61.45.15.9-4.81,4.7-9.34,9.69-14.86,13.62-9.34,6.66-19.65,10.88-31.05,12.2-21.07,2.44-39.54-3.5-55.07-17.93-10.89-10.12-17.69-22.66-20.12-37.34-3.6-21.81,1.98-41.14,16.82-57.56,10.3-11.39,23.21-18.4,38.39-20.87,20.04-3.26,38.08,1.52,54.04,14.1,2.23,1.76,4.25,3.74,6.27,5.73,6.07,6,12.12,12.02,18.18,18.03,6.45,6.39,12.91,12.77,19.36,19.16,6.52,6.45,13.05,12.91,19.57,19.36,6.48,6.41,12.93,12.84,19.44,19.22,3.56,3.49,6.94,7.17,11.06,10.05,7.99,5.58,16.84,8.54,26.59,8.82,23.64.69,43.72-15.84,48.55-38.04,5.69-26.17-11.38-52.45-37.61-57.47-16.87-3.23-31.56,1.32-43.9,13.29-2.17,2.11-4.3,4.26-6.42,6.43-.46.47-.69.49-1.17,0-4.2-4.23-8.43-8.42-12.65-12.63-.26-.26-.61-.44-.14-.9,4.55-4.42,8.79-9.15,13.9-12.97,9.05-6.76,19.13-11.12,30.31-12.78,17.15-2.55,33.13.74,47.61,10.3,15.16,10.01,24.77,24.03,28.9,41.74,1.16,4.97,1.7,10.02,1.62,15.12-.27,17.87-6.44,33.4-18.77,46.38-10.18,10.71-22.65,17.26-37.18,19.91-3.87.71-7.78,1-13.54,1.04Z"/>
  </g>
</svg>